<mxfile host="app.diagrams.net" modified="2023-03-05T06:39:44.568Z" agent="5.0 (Windows NT 10.0; Win64; x64) AppleWebKit/537.36 (KHTML, like Gecko) Chrome/110.0.0.0 Safari/537.36 Edg/110.0.1587.46" etag="_CUsGeAfrfOuiw-_AHKa" version="20.8.23" type="github" pages="4">
  <diagram id="C5RBs43oDa-KdzZeNtuy" name="文档管理">
    <mxGraphModel dx="634" dy="620" grid="1" gridSize="10" guides="1" tooltips="1" connect="1" arrows="1" fold="1" page="1" pageScale="1" pageWidth="827" pageHeight="1169" math="0" shadow="0">
      <root>
        <mxCell id="WIyWlLk6GJQsqaUBKTNV-0" />
        <mxCell id="WIyWlLk6GJQsqaUBKTNV-1" parent="WIyWlLk6GJQsqaUBKTNV-0" />
        <mxCell id="u-H9tAzX5xYa-0JLk3yS-4" value="Document" style="swimlane;fontStyle=1;childLayout=stackLayout;horizontal=1;startSize=26;fillColor=none;horizontalStack=0;resizeParent=1;resizeParentMax=0;resizeLast=0;collapsible=1;marginBottom=0;fontFamily=Times New Roman;fontSize=14;" parent="WIyWlLk6GJQsqaUBKTNV-1" vertex="1">
          <mxGeometry x="80" y="240" width="140" height="182" as="geometry" />
        </mxCell>
        <mxCell id="u-H9tAzX5xYa-0JLk3yS-5" value="- docID: long" style="text;strokeColor=none;fillColor=none;align=left;verticalAlign=top;spacingLeft=4;spacingRight=4;overflow=hidden;rotatable=0;points=[[0,0.5],[1,0.5]];portConstraint=eastwest;fontFamily=Times New Roman;fontSize=14;" parent="u-H9tAzX5xYa-0JLk3yS-4" vertex="1">
          <mxGeometry y="26" width="140" height="26" as="geometry" />
        </mxCell>
        <mxCell id="u-H9tAzX5xYa-0JLk3yS-6" value="- docTitle: String" style="text;strokeColor=none;fillColor=none;align=left;verticalAlign=top;spacingLeft=4;spacingRight=4;overflow=hidden;rotatable=0;points=[[0,0.5],[1,0.5]];portConstraint=eastwest;fontFamily=Times New Roman;fontSize=14;" parent="u-H9tAzX5xYa-0JLk3yS-4" vertex="1">
          <mxGeometry y="52" width="140" height="26" as="geometry" />
        </mxCell>
        <object label="- docContent: Text&#xa;" d="d" id="u-H9tAzX5xYa-0JLk3yS-7">
          <mxCell style="text;strokeColor=none;fillColor=none;align=left;verticalAlign=top;spacingLeft=4;spacingRight=4;overflow=hidden;rotatable=0;points=[[0,0.5],[1,0.5]];portConstraint=eastwest;fontFamily=Times New Roman;fontSize=14;" parent="u-H9tAzX5xYa-0JLk3yS-4" vertex="1">
            <mxGeometry y="78" width="140" height="26" as="geometry" />
          </mxCell>
        </object>
        <object label="- userID: long&#xa;" d="d" id="u-H9tAzX5xYa-0JLk3yS-8">
          <mxCell style="text;strokeColor=none;fillColor=none;align=left;verticalAlign=top;spacingLeft=4;spacingRight=4;overflow=hidden;rotatable=0;points=[[0,0.5],[1,0.5]];portConstraint=eastwest;fontFamily=Times New Roman;fontSize=14;" parent="u-H9tAzX5xYa-0JLk3yS-4" vertex="1">
            <mxGeometry y="104" width="140" height="26" as="geometry" />
          </mxCell>
        </object>
        <object label="- fileID: long&#xa;" d="d" id="u-H9tAzX5xYa-0JLk3yS-9">
          <mxCell style="text;strokeColor=none;fillColor=none;align=left;verticalAlign=top;spacingLeft=4;spacingRight=4;overflow=hidden;rotatable=0;points=[[0,0.5],[1,0.5]];portConstraint=eastwest;fontFamily=Times New Roman;fontSize=14;" parent="u-H9tAzX5xYa-0JLk3yS-4" vertex="1">
            <mxGeometry y="130" width="140" height="26" as="geometry" />
          </mxCell>
        </object>
        <object label="..." d="d" id="u-H9tAzX5xYa-0JLk3yS-25">
          <mxCell style="text;strokeColor=none;fillColor=none;align=left;verticalAlign=top;spacingLeft=4;spacingRight=4;overflow=hidden;rotatable=0;points=[[0,0.5],[1,0.5]];portConstraint=eastwest;fontFamily=Times New Roman;fontSize=14;" parent="u-H9tAzX5xYa-0JLk3yS-4" vertex="1">
            <mxGeometry y="156" width="140" height="26" as="geometry" />
          </mxCell>
        </object>
        <mxCell id="u-H9tAzX5xYa-0JLk3yS-16" value="DocumentDAO" style="swimlane;fontStyle=1;childLayout=stackLayout;horizontal=1;startSize=26;fillColor=none;horizontalStack=0;resizeParent=1;resizeParentMax=0;resizeLast=0;collapsible=1;marginBottom=0;fontFamily=Times New Roman;fontSize=14;" parent="WIyWlLk6GJQsqaUBKTNV-1" vertex="1">
          <mxGeometry x="80" y="480" width="260" height="130" as="geometry" />
        </mxCell>
        <mxCell id="u-H9tAzX5xYa-0JLk3yS-17" value="+ findById(id)" style="text;strokeColor=none;fillColor=none;align=left;verticalAlign=top;spacingLeft=4;spacingRight=4;overflow=hidden;rotatable=0;points=[[0,0.5],[1,0.5]];portConstraint=eastwest;fontFamily=Times New Roman;fontSize=14;" parent="u-H9tAzX5xYa-0JLk3yS-16" vertex="1">
          <mxGeometry y="26" width="260" height="26" as="geometry" />
        </mxCell>
        <mxCell id="u-H9tAzX5xYa-0JLk3yS-18" value="+ findBykeyName(name): List&lt;Document&gt;" style="text;strokeColor=none;fillColor=none;align=left;verticalAlign=top;spacingLeft=4;spacingRight=4;overflow=hidden;rotatable=0;points=[[0,0.5],[1,0.5]];portConstraint=eastwest;fontFamily=Times New Roman;fontSize=14;" parent="u-H9tAzX5xYa-0JLk3yS-16" vertex="1">
          <mxGeometry y="52" width="260" height="26" as="geometry" />
        </mxCell>
        <mxCell id="u-H9tAzX5xYa-0JLk3yS-19" value="+ addItem(name,id,data...)" style="text;strokeColor=none;fillColor=none;align=left;verticalAlign=top;spacingLeft=4;spacingRight=4;overflow=hidden;rotatable=0;points=[[0,0.5],[1,0.5]];portConstraint=eastwest;fontFamily=Times New Roman;fontSize=14;" parent="u-H9tAzX5xYa-0JLk3yS-16" vertex="1">
          <mxGeometry y="78" width="260" height="26" as="geometry" />
        </mxCell>
        <mxCell id="u-H9tAzX5xYa-0JLk3yS-20" value="+ removeItem(name,id)" style="text;strokeColor=none;fillColor=none;align=left;verticalAlign=top;spacingLeft=4;spacingRight=4;overflow=hidden;rotatable=0;points=[[0,0.5],[1,0.5]];portConstraint=eastwest;fontFamily=Times New Roman;fontSize=14;" parent="u-H9tAzX5xYa-0JLk3yS-16" vertex="1">
          <mxGeometry y="104" width="260" height="26" as="geometry" />
        </mxCell>
        <mxCell id="u-H9tAzX5xYa-0JLk3yS-31" value="DocumentController" style="swimlane;fontStyle=1;align=center;verticalAlign=top;childLayout=stackLayout;horizontal=1;startSize=26;horizontalStack=0;resizeParent=1;resizeParentMax=0;resizeLast=0;collapsible=1;marginBottom=0;fontFamily=Times New Roman;fontSize=14;" parent="WIyWlLk6GJQsqaUBKTNV-1" vertex="1">
          <mxGeometry x="80" y="40" width="240" height="164" as="geometry" />
        </mxCell>
        <mxCell id="u-H9tAzX5xYa-0JLk3yS-32" value="- documentService:DocumentService" style="text;strokeColor=none;fillColor=none;align=left;verticalAlign=top;spacingLeft=4;spacingRight=4;overflow=hidden;rotatable=0;points=[[0,0.5],[1,0.5]];portConstraint=eastwest;fontFamily=Times New Roman;fontSize=14;" parent="u-H9tAzX5xYa-0JLk3yS-31" vertex="1">
          <mxGeometry y="26" width="240" height="26" as="geometry" />
        </mxCell>
        <mxCell id="u-H9tAzX5xYa-0JLk3yS-33" value="" style="line;strokeWidth=1;fillColor=none;align=left;verticalAlign=middle;spacingTop=-1;spacingLeft=3;spacingRight=3;rotatable=0;labelPosition=right;points=[];portConstraint=eastwest;strokeColor=inherit;fontFamily=Times New Roman;fontSize=14;" parent="u-H9tAzX5xYa-0JLk3yS-31" vertex="1">
          <mxGeometry y="52" width="240" height="8" as="geometry" />
        </mxCell>
        <mxCell id="u-H9tAzX5xYa-0JLk3yS-34" value="+ documentUpload(fileList):JSON" style="text;strokeColor=none;fillColor=none;align=left;verticalAlign=top;spacingLeft=4;spacingRight=4;overflow=hidden;rotatable=0;points=[[0,0.5],[1,0.5]];portConstraint=eastwest;fontFamily=Times New Roman;fontSize=14;" parent="u-H9tAzX5xYa-0JLk3yS-31" vertex="1">
          <mxGeometry y="60" width="240" height="26" as="geometry" />
        </mxCell>
        <mxCell id="u-H9tAzX5xYa-0JLk3yS-39" value="+ documentDownload(docIDList):FILE" style="text;strokeColor=none;fillColor=none;align=left;verticalAlign=top;spacingLeft=4;spacingRight=4;overflow=hidden;rotatable=0;points=[[0,0.5],[1,0.5]];portConstraint=eastwest;fontFamily=Times New Roman;fontSize=14;" parent="u-H9tAzX5xYa-0JLk3yS-31" vertex="1">
          <mxGeometry y="86" width="240" height="26" as="geometry" />
        </mxCell>
        <mxCell id="u-H9tAzX5xYa-0JLk3yS-40" value="+ documentDelete(docIDList):JSON" style="text;strokeColor=none;fillColor=none;align=left;verticalAlign=top;spacingLeft=4;spacingRight=4;overflow=hidden;rotatable=0;points=[[0,0.5],[1,0.5]];portConstraint=eastwest;fontFamily=Times New Roman;fontSize=14;" parent="u-H9tAzX5xYa-0JLk3yS-31" vertex="1">
          <mxGeometry y="112" width="240" height="26" as="geometry" />
        </mxCell>
        <mxCell id="u-H9tAzX5xYa-0JLk3yS-41" value="+ documentQuery(data...):JSON" style="text;strokeColor=none;fillColor=none;align=left;verticalAlign=top;spacingLeft=4;spacingRight=4;overflow=hidden;rotatable=0;points=[[0,0.5],[1,0.5]];portConstraint=eastwest;fontFamily=Times New Roman;fontSize=14;" parent="u-H9tAzX5xYa-0JLk3yS-31" vertex="1">
          <mxGeometry y="138" width="240" height="26" as="geometry" />
        </mxCell>
        <mxCell id="u-H9tAzX5xYa-0JLk3yS-35" value="DocumentServiceImpl" style="swimlane;fontStyle=1;align=center;verticalAlign=top;childLayout=stackLayout;horizontal=1;startSize=26;horizontalStack=0;resizeParent=1;resizeParentMax=0;resizeLast=0;collapsible=1;marginBottom=0;fontFamily=Times New Roman;fontSize=14;" parent="WIyWlLk6GJQsqaUBKTNV-1" vertex="1">
          <mxGeometry x="370" y="240" width="250" height="190" as="geometry" />
        </mxCell>
        <mxCell id="u-H9tAzX5xYa-0JLk3yS-36" value="-  documentHandler:DocumentHandler" style="text;strokeColor=none;fillColor=none;align=left;verticalAlign=top;spacingLeft=4;spacingRight=4;overflow=hidden;rotatable=0;points=[[0,0.5],[1,0.5]];portConstraint=eastwest;fontFamily=Times New Roman;fontSize=14;" parent="u-H9tAzX5xYa-0JLk3yS-35" vertex="1">
          <mxGeometry y="26" width="250" height="26" as="geometry" />
        </mxCell>
        <mxCell id="u-H9tAzX5xYa-0JLk3yS-48" value="-  documentDAO:DocumentDAO" style="text;strokeColor=none;fillColor=none;align=left;verticalAlign=top;spacingLeft=4;spacingRight=4;overflow=hidden;rotatable=0;points=[[0,0.5],[1,0.5]];portConstraint=eastwest;fontFamily=Times New Roman;fontSize=14;" parent="u-H9tAzX5xYa-0JLk3yS-35" vertex="1">
          <mxGeometry y="52" width="250" height="26" as="geometry" />
        </mxCell>
        <mxCell id="u-H9tAzX5xYa-0JLk3yS-37" value="" style="line;strokeWidth=1;fillColor=none;align=left;verticalAlign=middle;spacingTop=-1;spacingLeft=3;spacingRight=3;rotatable=0;labelPosition=right;points=[];portConstraint=eastwest;strokeColor=inherit;fontFamily=Times New Roman;fontSize=14;" parent="u-H9tAzX5xYa-0JLk3yS-35" vertex="1">
          <mxGeometry y="78" width="250" height="8" as="geometry" />
        </mxCell>
        <mxCell id="u-H9tAzX5xYa-0JLk3yS-38" value="+ documentUpload(fileList):JSON" style="text;strokeColor=none;fillColor=none;align=left;verticalAlign=top;spacingLeft=4;spacingRight=4;overflow=hidden;rotatable=0;points=[[0,0.5],[1,0.5]];portConstraint=eastwest;fontFamily=Times New Roman;fontSize=14;" parent="u-H9tAzX5xYa-0JLk3yS-35" vertex="1">
          <mxGeometry y="86" width="250" height="26" as="geometry" />
        </mxCell>
        <mxCell id="u-H9tAzX5xYa-0JLk3yS-53" value="+ documentDownload(docIDList):FILE" style="text;strokeColor=none;fillColor=none;align=left;verticalAlign=top;spacingLeft=4;spacingRight=4;overflow=hidden;rotatable=0;points=[[0,0.5],[1,0.5]];portConstraint=eastwest;fontFamily=Times New Roman;fontSize=14;" parent="u-H9tAzX5xYa-0JLk3yS-35" vertex="1">
          <mxGeometry y="112" width="250" height="26" as="geometry" />
        </mxCell>
        <mxCell id="u-H9tAzX5xYa-0JLk3yS-54" value="+ documentDelete(docIDList):JSON" style="text;strokeColor=none;fillColor=none;align=left;verticalAlign=top;spacingLeft=4;spacingRight=4;overflow=hidden;rotatable=0;points=[[0,0.5],[1,0.5]];portConstraint=eastwest;fontFamily=Times New Roman;fontSize=14;" parent="u-H9tAzX5xYa-0JLk3yS-35" vertex="1">
          <mxGeometry y="138" width="250" height="26" as="geometry" />
        </mxCell>
        <mxCell id="u-H9tAzX5xYa-0JLk3yS-55" value="+ documentQuery(data...):JSON" style="text;strokeColor=none;fillColor=none;align=left;verticalAlign=top;spacingLeft=4;spacingRight=4;overflow=hidden;rotatable=0;points=[[0,0.5],[1,0.5]];portConstraint=eastwest;fontFamily=Times New Roman;fontSize=14;" parent="u-H9tAzX5xYa-0JLk3yS-35" vertex="1">
          <mxGeometry y="164" width="250" height="26" as="geometry" />
        </mxCell>
        <mxCell id="u-H9tAzX5xYa-0JLk3yS-42" value="DocumentService" style="swimlane;fontStyle=1;childLayout=stackLayout;horizontal=1;startSize=26;fillColor=none;horizontalStack=0;resizeParent=1;resizeParentMax=0;resizeLast=0;collapsible=1;marginBottom=0;fontFamily=Times New Roman;fontSize=14;" parent="WIyWlLk6GJQsqaUBKTNV-1" vertex="1">
          <mxGeometry x="370" y="57" width="240" height="130" as="geometry" />
        </mxCell>
        <mxCell id="u-H9tAzX5xYa-0JLk3yS-43" value="+ documentUpload(fileList):JSON" style="text;strokeColor=none;fillColor=none;align=left;verticalAlign=top;spacingLeft=4;spacingRight=4;overflow=hidden;rotatable=0;points=[[0,0.5],[1,0.5]];portConstraint=eastwest;fontFamily=Times New Roman;fontSize=14;" parent="u-H9tAzX5xYa-0JLk3yS-42" vertex="1">
          <mxGeometry y="26" width="240" height="26" as="geometry" />
        </mxCell>
        <mxCell id="u-H9tAzX5xYa-0JLk3yS-44" value="+ documentDownload(docIDList):FILE" style="text;strokeColor=none;fillColor=none;align=left;verticalAlign=top;spacingLeft=4;spacingRight=4;overflow=hidden;rotatable=0;points=[[0,0.5],[1,0.5]];portConstraint=eastwest;fontFamily=Times New Roman;fontSize=14;" parent="u-H9tAzX5xYa-0JLk3yS-42" vertex="1">
          <mxGeometry y="52" width="240" height="26" as="geometry" />
        </mxCell>
        <mxCell id="u-H9tAzX5xYa-0JLk3yS-45" value="+ documentDelete(docIDList):JSON" style="text;strokeColor=none;fillColor=none;align=left;verticalAlign=top;spacingLeft=4;spacingRight=4;overflow=hidden;rotatable=0;points=[[0,0.5],[1,0.5]];portConstraint=eastwest;fontFamily=Times New Roman;fontSize=14;" parent="u-H9tAzX5xYa-0JLk3yS-42" vertex="1">
          <mxGeometry y="78" width="240" height="26" as="geometry" />
        </mxCell>
        <mxCell id="u-H9tAzX5xYa-0JLk3yS-46" value="+ documentQuery(data...):JSON" style="text;strokeColor=none;fillColor=none;align=left;verticalAlign=top;spacingLeft=4;spacingRight=4;overflow=hidden;rotatable=0;points=[[0,0.5],[1,0.5]];portConstraint=eastwest;fontFamily=Times New Roman;fontSize=14;" parent="u-H9tAzX5xYa-0JLk3yS-42" vertex="1">
          <mxGeometry y="104" width="240" height="26" as="geometry" />
        </mxCell>
        <mxCell id="u-H9tAzX5xYa-0JLk3yS-56" value="DocumentHandler" style="swimlane;fontStyle=1;childLayout=stackLayout;horizontal=1;startSize=26;fillColor=none;horizontalStack=0;resizeParent=1;resizeParentMax=0;resizeLast=0;collapsible=1;marginBottom=0;fontFamily=Times New Roman;fontSize=14;" parent="WIyWlLk6GJQsqaUBKTNV-1" vertex="1">
          <mxGeometry x="440" y="490" width="200" height="164" as="geometry" />
        </mxCell>
        <mxCell id="u-H9tAzX5xYa-0JLk3yS-69" value="-  documentDAO:DocumentDAO" style="text;strokeColor=none;fillColor=none;align=left;verticalAlign=top;spacingLeft=4;spacingRight=4;overflow=hidden;rotatable=0;points=[[0,0.5],[1,0.5]];portConstraint=eastwest;fontFamily=Times New Roman;fontSize=14;" parent="u-H9tAzX5xYa-0JLk3yS-56" vertex="1">
          <mxGeometry y="26" width="200" height="26" as="geometry" />
        </mxCell>
        <mxCell id="u-H9tAzX5xYa-0JLk3yS-70" value="" style="line;strokeWidth=1;fillColor=none;align=left;verticalAlign=middle;spacingTop=-1;spacingLeft=3;spacingRight=3;rotatable=0;labelPosition=right;points=[];portConstraint=eastwest;strokeColor=inherit;fontFamily=Times New Roman;fontSize=14;" parent="u-H9tAzX5xYa-0JLk3yS-56" vertex="1">
          <mxGeometry y="52" width="200" height="8" as="geometry" />
        </mxCell>
        <mxCell id="u-H9tAzX5xYa-0JLk3yS-57" value="+ uploadProcess(fileList)" style="text;strokeColor=none;fillColor=none;align=left;verticalAlign=top;spacingLeft=4;spacingRight=4;overflow=hidden;rotatable=0;points=[[0,0.5],[1,0.5]];portConstraint=eastwest;fontFamily=Times New Roman;fontSize=14;" parent="u-H9tAzX5xYa-0JLk3yS-56" vertex="1">
          <mxGeometry y="60" width="200" height="26" as="geometry" />
        </mxCell>
        <mxCell id="u-H9tAzX5xYa-0JLk3yS-58" value="+ downloadProcess(docIDList)" style="text;strokeColor=none;fillColor=none;align=left;verticalAlign=top;spacingLeft=4;spacingRight=4;overflow=hidden;rotatable=0;points=[[0,0.5],[1,0.5]];portConstraint=eastwest;fontFamily=Times New Roman;fontSize=14;" parent="u-H9tAzX5xYa-0JLk3yS-56" vertex="1">
          <mxGeometry y="86" width="200" height="26" as="geometry" />
        </mxCell>
        <mxCell id="u-H9tAzX5xYa-0JLk3yS-59" value="+ deleteProcess(docIDList)" style="text;strokeColor=none;fillColor=none;align=left;verticalAlign=top;spacingLeft=4;spacingRight=4;overflow=hidden;rotatable=0;points=[[0,0.5],[1,0.5]];portConstraint=eastwest;fontFamily=Times New Roman;fontSize=14;" parent="u-H9tAzX5xYa-0JLk3yS-56" vertex="1">
          <mxGeometry y="112" width="200" height="26" as="geometry" />
        </mxCell>
        <mxCell id="u-H9tAzX5xYa-0JLk3yS-60" value="+ queryProcess(data...)" style="text;strokeColor=none;fillColor=none;align=left;verticalAlign=top;spacingLeft=4;spacingRight=4;overflow=hidden;rotatable=0;points=[[0,0.5],[1,0.5]];portConstraint=eastwest;fontFamily=Times New Roman;fontSize=14;" parent="u-H9tAzX5xYa-0JLk3yS-56" vertex="1">
          <mxGeometry y="138" width="200" height="26" as="geometry" />
        </mxCell>
        <mxCell id="u-H9tAzX5xYa-0JLk3yS-61" value="" style="endArrow=open;endFill=1;endSize=12;html=1;rounded=0;fontFamily=Times New Roman;entryX=0;entryY=0.5;entryDx=0;entryDy=0;fontSize=14;exitX=0.994;exitY=-0.115;exitDx=0;exitDy=0;exitPerimeter=0;" parent="WIyWlLk6GJQsqaUBKTNV-1" target="u-H9tAzX5xYa-0JLk3yS-45" edge="1" source="u-H9tAzX5xYa-0JLk3yS-34">
          <mxGeometry width="160" relative="1" as="geometry">
            <mxPoint x="290" y="148" as="sourcePoint" />
            <mxPoint x="630" y="330" as="targetPoint" />
          </mxGeometry>
        </mxCell>
        <mxCell id="u-H9tAzX5xYa-0JLk3yS-62" value="" style="endArrow=block;dashed=1;endFill=0;endSize=12;html=1;rounded=0;fontFamily=Times New Roman;exitX=0.5;exitY=0;exitDx=0;exitDy=0;entryX=0.515;entryY=1.064;entryDx=0;entryDy=0;entryPerimeter=0;fontSize=14;" parent="WIyWlLk6GJQsqaUBKTNV-1" source="u-H9tAzX5xYa-0JLk3yS-35" target="u-H9tAzX5xYa-0JLk3yS-46" edge="1">
          <mxGeometry width="160" relative="1" as="geometry">
            <mxPoint x="470" y="330" as="sourcePoint" />
            <mxPoint x="700" y="220" as="targetPoint" />
          </mxGeometry>
        </mxCell>
        <mxCell id="u-H9tAzX5xYa-0JLk3yS-64" value="" style="endArrow=open;endFill=1;endSize=12;html=1;rounded=0;fontFamily=Times New Roman;exitX=0.25;exitY=0;exitDx=0;exitDy=0;entryX=0.438;entryY=1.038;entryDx=0;entryDy=0;entryPerimeter=0;dashed=1;fontSize=14;" parent="WIyWlLk6GJQsqaUBKTNV-1" source="u-H9tAzX5xYa-0JLk3yS-16" target="u-H9tAzX5xYa-0JLk3yS-25" edge="1">
          <mxGeometry width="160" relative="1" as="geometry">
            <mxPoint x="290" y="330" as="sourcePoint" />
            <mxPoint x="450" y="330" as="targetPoint" />
          </mxGeometry>
        </mxCell>
        <mxCell id="u-H9tAzX5xYa-0JLk3yS-67" value="" style="endArrow=open;endFill=1;endSize=12;html=1;rounded=0;fontFamily=Times New Roman;entryX=0.998;entryY=0.246;entryDx=0;entryDy=0;entryPerimeter=0;dashed=1;exitX=0.007;exitY=0.8;exitDx=0;exitDy=0;exitPerimeter=0;fontSize=14;" parent="WIyWlLk6GJQsqaUBKTNV-1" source="u-H9tAzX5xYa-0JLk3yS-37" target="u-H9tAzX5xYa-0JLk3yS-7" edge="1">
          <mxGeometry width="160" relative="1" as="geometry">
            <mxPoint x="250" y="390" as="sourcePoint" />
            <mxPoint x="151" y="433" as="targetPoint" />
          </mxGeometry>
        </mxCell>
        <mxCell id="u-H9tAzX5xYa-0JLk3yS-72" value="1" style="endArrow=open;html=1;endSize=12;startArrow=diamondThin;startSize=14;startFill=1;align=left;verticalAlign=bottom;rounded=0;fontFamily=Times New Roman;entryX=0.5;entryY=0;entryDx=0;entryDy=0;fontColor=none;noLabel=1;fontSize=14;exitX=0.525;exitY=1.036;exitDx=0;exitDy=0;exitPerimeter=0;" parent="WIyWlLk6GJQsqaUBKTNV-1" target="u-H9tAzX5xYa-0JLk3yS-56" edge="1" source="u-H9tAzX5xYa-0JLk3yS-55">
          <mxGeometry x="-1" y="3" relative="1" as="geometry">
            <mxPoint x="440" y="430" as="sourcePoint" />
            <mxPoint x="484" y="450" as="targetPoint" />
          </mxGeometry>
        </mxCell>
        <mxCell id="u-H9tAzX5xYa-0JLk3yS-73" value="1" style="endArrow=open;endSize=12;startArrow=diamondThin;startSize=14;startFill=1;align=left;verticalAlign=bottom;rounded=0;fontFamily=Times New Roman;entryX=0.5;entryY=0;entryDx=0;entryDy=0;html=1;fontColor=none;noLabel=1;fontSize=14;exitX=0;exitY=0.5;exitDx=0;exitDy=0;" parent="WIyWlLk6GJQsqaUBKTNV-1" target="u-H9tAzX5xYa-0JLk3yS-16" edge="1" source="u-H9tAzX5xYa-0JLk3yS-53">
          <mxGeometry x="-1" y="3" relative="1" as="geometry">
            <mxPoint x="318" y="398" as="sourcePoint" />
            <mxPoint x="510" y="530" as="targetPoint" />
          </mxGeometry>
        </mxCell>
        <mxCell id="u-H9tAzX5xYa-0JLk3yS-74" value="1" style="endArrow=open;html=1;endSize=12;startArrow=diamondThin;startSize=14;startFill=1;align=left;verticalAlign=bottom;rounded=0;fontFamily=Times New Roman;exitX=0;exitY=0.5;exitDx=0;exitDy=0;fontColor=none;noLabel=1;fontSize=14;entryX=1;entryY=0.5;entryDx=0;entryDy=0;" parent="WIyWlLk6GJQsqaUBKTNV-1" source="u-H9tAzX5xYa-0JLk3yS-58" edge="1" target="u-H9tAzX5xYa-0JLk3yS-18">
          <mxGeometry x="-1" y="3" relative="1" as="geometry">
            <mxPoint x="450" y="450" as="sourcePoint" />
            <mxPoint x="320" y="560" as="targetPoint" />
          </mxGeometry>
        </mxCell>
      </root>
    </mxGraphModel>
  </diagram>
  <diagram id="l-k5GLWyKBgVjE5C-Nrj" name="要素抽取">
    <mxGraphModel dx="844" dy="620" grid="1" gridSize="10" guides="1" tooltips="1" connect="1" arrows="1" fold="1" page="1" pageScale="1" pageWidth="827" pageHeight="1169" math="0" shadow="0">
      <root>
        <mxCell id="0" />
        <mxCell id="1" parent="0" />
        <mxCell id="3h8cozunEXpPDpx6HcZv-1" value="Element" style="swimlane;fontStyle=1;childLayout=stackLayout;horizontal=1;startSize=26;fillColor=none;horizontalStack=0;resizeParent=1;resizeParentMax=0;resizeLast=0;collapsible=1;marginBottom=0;fontFamily=Times New Roman;fontSize=14;" parent="1" vertex="1">
          <mxGeometry x="60" y="220" width="140" height="182" as="geometry" />
        </mxCell>
        <mxCell id="3h8cozunEXpPDpx6HcZv-2" value="- elementID: long" style="text;strokeColor=none;fillColor=none;align=left;verticalAlign=top;spacingLeft=4;spacingRight=4;overflow=hidden;rotatable=0;points=[[0,0.5],[1,0.5]];portConstraint=eastwest;fontFamily=Times New Roman;fontSize=14;" parent="3h8cozunEXpPDpx6HcZv-1" vertex="1">
          <mxGeometry y="26" width="140" height="26" as="geometry" />
        </mxCell>
        <mxCell id="3h8cozunEXpPDpx6HcZv-3" value="- elementName: String" style="text;strokeColor=none;fillColor=none;align=left;verticalAlign=top;spacingLeft=4;spacingRight=4;overflow=hidden;rotatable=0;points=[[0,0.5],[1,0.5]];portConstraint=eastwest;fontFamily=Times New Roman;fontSize=14;" parent="3h8cozunEXpPDpx6HcZv-1" vertex="1">
          <mxGeometry y="52" width="140" height="26" as="geometry" />
        </mxCell>
        <object label="- elementValue: String &#xa;" d="d" id="3h8cozunEXpPDpx6HcZv-4">
          <mxCell style="text;strokeColor=none;fillColor=none;align=left;verticalAlign=top;spacingLeft=4;spacingRight=4;overflow=hidden;rotatable=0;points=[[0,0.5],[1,0.5]];portConstraint=eastwest;fontFamily=Times New Roman;fontSize=14;" parent="3h8cozunEXpPDpx6HcZv-1" vertex="1">
            <mxGeometry y="78" width="140" height="26" as="geometry" />
          </mxCell>
        </object>
        <object label="- elementKey: String&#xa;" d="d" id="3h8cozunEXpPDpx6HcZv-5">
          <mxCell style="text;strokeColor=none;fillColor=none;align=left;verticalAlign=top;spacingLeft=4;spacingRight=4;overflow=hidden;rotatable=0;points=[[0,0.5],[1,0.5]];portConstraint=eastwest;fontFamily=Times New Roman;fontSize=14;" parent="3h8cozunEXpPDpx6HcZv-1" vertex="1">
            <mxGeometry y="104" width="140" height="26" as="geometry" />
          </mxCell>
        </object>
        <object label="- elementType: String&#xa;" d="d" id="3h8cozunEXpPDpx6HcZv-6">
          <mxCell style="text;strokeColor=none;fillColor=none;align=left;verticalAlign=top;spacingLeft=4;spacingRight=4;overflow=hidden;rotatable=0;points=[[0,0.5],[1,0.5]];portConstraint=eastwest;fontFamily=Times New Roman;fontSize=14;" parent="3h8cozunEXpPDpx6HcZv-1" vertex="1">
            <mxGeometry y="130" width="140" height="26" as="geometry" />
          </mxCell>
        </object>
        <object label="..." d="d" id="3h8cozunEXpPDpx6HcZv-7">
          <mxCell style="text;strokeColor=none;fillColor=none;align=left;verticalAlign=top;spacingLeft=4;spacingRight=4;overflow=hidden;rotatable=0;points=[[0,0.5],[1,0.5]];portConstraint=eastwest;fontFamily=Times New Roman;fontSize=14;" parent="3h8cozunEXpPDpx6HcZv-1" vertex="1">
            <mxGeometry y="156" width="140" height="26" as="geometry" />
          </mxCell>
        </object>
        <mxCell id="3h8cozunEXpPDpx6HcZv-8" value="ElementDAO" style="swimlane;fontStyle=1;childLayout=stackLayout;horizontal=1;startSize=26;fillColor=none;horizontalStack=0;resizeParent=1;resizeParentMax=0;resizeLast=0;collapsible=1;marginBottom=0;fontFamily=Times New Roman;fontSize=14;" parent="1" vertex="1">
          <mxGeometry x="70" y="489" width="250" height="130" as="geometry" />
        </mxCell>
        <mxCell id="3h8cozunEXpPDpx6HcZv-9" value="+ findById(id)" style="text;strokeColor=none;fillColor=none;align=left;verticalAlign=top;spacingLeft=4;spacingRight=4;overflow=hidden;rotatable=0;points=[[0,0.5],[1,0.5]];portConstraint=eastwest;fontFamily=Times New Roman;fontSize=14;" parent="3h8cozunEXpPDpx6HcZv-8" vertex="1">
          <mxGeometry y="26" width="250" height="26" as="geometry" />
        </mxCell>
        <mxCell id="3h8cozunEXpPDpx6HcZv-10" value="+ findBykeyName(name): List&lt;Element&gt;" style="text;strokeColor=none;fillColor=none;align=left;verticalAlign=top;spacingLeft=4;spacingRight=4;overflow=hidden;rotatable=0;points=[[0,0.5],[1,0.5]];portConstraint=eastwest;fontFamily=Times New Roman;fontSize=14;" parent="3h8cozunEXpPDpx6HcZv-8" vertex="1">
          <mxGeometry y="52" width="250" height="26" as="geometry" />
        </mxCell>
        <mxCell id="3h8cozunEXpPDpx6HcZv-11" value="+ addItem(name,id,data...)" style="text;strokeColor=none;fillColor=none;align=left;verticalAlign=top;spacingLeft=4;spacingRight=4;overflow=hidden;rotatable=0;points=[[0,0.5],[1,0.5]];portConstraint=eastwest;fontFamily=Times New Roman;fontSize=14;" parent="3h8cozunEXpPDpx6HcZv-8" vertex="1">
          <mxGeometry y="78" width="250" height="26" as="geometry" />
        </mxCell>
        <mxCell id="3h8cozunEXpPDpx6HcZv-73" value="+ removeItem(name,id)" style="text;strokeColor=none;fillColor=none;align=left;verticalAlign=top;spacingLeft=4;spacingRight=4;overflow=hidden;rotatable=0;points=[[0,0.5],[1,0.5]];portConstraint=eastwest;fontFamily=Times New Roman;fontSize=14;" parent="3h8cozunEXpPDpx6HcZv-8" vertex="1">
          <mxGeometry y="104" width="250" height="26" as="geometry" />
        </mxCell>
        <mxCell id="3h8cozunEXpPDpx6HcZv-13" value="ElementExtractController" style="swimlane;fontStyle=1;align=center;verticalAlign=top;childLayout=stackLayout;horizontal=1;startSize=26;horizontalStack=0;resizeParent=1;resizeParentMax=0;resizeLast=0;collapsible=1;marginBottom=0;fontFamily=Times New Roman;fontSize=14;" parent="1" vertex="1">
          <mxGeometry x="50" y="39" width="280" height="88" as="geometry" />
        </mxCell>
        <mxCell id="3h8cozunEXpPDpx6HcZv-14" value="- elementExtractService:ElementExtractService" style="text;strokeColor=none;fillColor=none;align=left;verticalAlign=top;spacingLeft=4;spacingRight=4;overflow=hidden;rotatable=0;points=[[0,0.5],[1,0.5]];portConstraint=eastwest;fontFamily=Times New Roman;fontSize=14;" parent="3h8cozunEXpPDpx6HcZv-13" vertex="1">
          <mxGeometry y="26" width="280" height="26" as="geometry" />
        </mxCell>
        <mxCell id="3h8cozunEXpPDpx6HcZv-15" value="" style="line;strokeWidth=1;fillColor=none;align=left;verticalAlign=middle;spacingTop=-1;spacingLeft=3;spacingRight=3;rotatable=0;labelPosition=right;points=[];portConstraint=eastwest;strokeColor=inherit;fontFamily=Times New Roman;fontSize=14;" parent="3h8cozunEXpPDpx6HcZv-13" vertex="1">
          <mxGeometry y="52" width="280" height="10" as="geometry" />
        </mxCell>
        <mxCell id="3h8cozunEXpPDpx6HcZv-16" value="+ getDocExtract(docID): JSON" style="text;strokeColor=none;fillColor=none;align=left;verticalAlign=top;spacingLeft=4;spacingRight=4;overflow=hidden;rotatable=0;points=[[0,0.5],[1,0.5]];portConstraint=eastwest;fontFamily=Times New Roman;fontSize=14;" parent="3h8cozunEXpPDpx6HcZv-13" vertex="1">
          <mxGeometry y="62" width="280" height="26" as="geometry" />
        </mxCell>
        <mxCell id="3h8cozunEXpPDpx6HcZv-20" value="ElementExtractServiceImpl" style="swimlane;fontStyle=1;align=center;verticalAlign=top;childLayout=stackLayout;horizontal=1;startSize=26;horizontalStack=0;resizeParent=1;resizeParentMax=0;resizeLast=0;collapsible=1;marginBottom=0;fontFamily=Times New Roman;fontSize=14;" parent="1" vertex="1">
          <mxGeometry x="240" y="180" width="290" height="216" as="geometry" />
        </mxCell>
        <mxCell id="3h8cozunEXpPDpx6HcZv-21" value="- processDocHandler: ProcessDocHandler" style="text;strokeColor=none;fillColor=none;align=left;verticalAlign=top;spacingLeft=4;spacingRight=4;overflow=hidden;rotatable=0;points=[[0,0.5],[1,0.5]];portConstraint=eastwest;fontFamily=Times New Roman;fontSize=14;" parent="3h8cozunEXpPDpx6HcZv-20" vertex="1">
          <mxGeometry y="26" width="290" height="26" as="geometry" />
        </mxCell>
        <mxCell id="3h8cozunEXpPDpx6HcZv-22" value="- elementExtractHandler: ElementExtractHandler" style="text;strokeColor=none;fillColor=none;align=left;verticalAlign=top;spacingLeft=4;spacingRight=4;overflow=hidden;rotatable=0;points=[[0,0.5],[1,0.5]];portConstraint=eastwest;fontFamily=Times New Roman;fontSize=14;" parent="3h8cozunEXpPDpx6HcZv-20" vertex="1">
          <mxGeometry y="52" width="290" height="26" as="geometry" />
        </mxCell>
        <mxCell id="3h8cozunEXpPDpx6HcZv-47" value="- elementResultDAO: ElementResultDAO" style="text;strokeColor=none;fillColor=none;align=left;verticalAlign=top;spacingLeft=4;spacingRight=4;overflow=hidden;rotatable=0;points=[[0,0.5],[1,0.5]];portConstraint=eastwest;fontFamily=Times New Roman;fontSize=14;" parent="3h8cozunEXpPDpx6HcZv-20" vertex="1">
          <mxGeometry y="78" width="290" height="26" as="geometry" />
        </mxCell>
        <mxCell id="3h8cozunEXpPDpx6HcZv-48" value="- reportInfoDAO: ReportInfoDAO" style="text;strokeColor=none;fillColor=none;align=left;verticalAlign=top;spacingLeft=4;spacingRight=4;overflow=hidden;rotatable=0;points=[[0,0.5],[1,0.5]];portConstraint=eastwest;fontFamily=Times New Roman;fontSize=14;" parent="3h8cozunEXpPDpx6HcZv-20" vertex="1">
          <mxGeometry y="104" width="290" height="26" as="geometry" />
        </mxCell>
        <mxCell id="3h8cozunEXpPDpx6HcZv-49" value="- objDAO: objDAO" style="text;strokeColor=none;fillColor=none;align=left;verticalAlign=top;spacingLeft=4;spacingRight=4;overflow=hidden;rotatable=0;points=[[0,0.5],[1,0.5]];portConstraint=eastwest;fontFamily=Times New Roman;fontSize=14;" parent="3h8cozunEXpPDpx6HcZv-20" vertex="1">
          <mxGeometry y="130" width="290" height="26" as="geometry" />
        </mxCell>
        <mxCell id="3h8cozunEXpPDpx6HcZv-23" value="" style="line;strokeWidth=1;fillColor=none;align=left;verticalAlign=middle;spacingTop=-1;spacingLeft=3;spacingRight=3;rotatable=0;labelPosition=right;points=[];portConstraint=eastwest;strokeColor=inherit;fontFamily=Times New Roman;fontSize=14;" parent="3h8cozunEXpPDpx6HcZv-20" vertex="1">
          <mxGeometry y="156" width="290" height="8" as="geometry" />
        </mxCell>
        <mxCell id="3h8cozunEXpPDpx6HcZv-24" value="+ extract(docID): JSON" style="text;strokeColor=none;fillColor=none;align=left;verticalAlign=top;spacingLeft=4;spacingRight=4;overflow=hidden;rotatable=0;points=[[0,0.5],[1,0.5]];portConstraint=eastwest;fontFamily=Times New Roman;fontSize=14;" parent="3h8cozunEXpPDpx6HcZv-20" vertex="1">
          <mxGeometry y="164" width="290" height="26" as="geometry" />
        </mxCell>
        <mxCell id="3h8cozunEXpPDpx6HcZv-25" value="+ getElementList(): List&lt;ContractElement&gt;" style="text;strokeColor=none;fillColor=none;align=left;verticalAlign=top;spacingLeft=4;spacingRight=4;overflow=hidden;rotatable=0;points=[[0,0.5],[1,0.5]];portConstraint=eastwest;fontFamily=Times New Roman;fontSize=14;" parent="3h8cozunEXpPDpx6HcZv-20" vertex="1">
          <mxGeometry y="190" width="290" height="26" as="geometry" />
        </mxCell>
        <mxCell id="3h8cozunEXpPDpx6HcZv-28" value="ElementExtractService" style="swimlane;fontStyle=1;childLayout=stackLayout;horizontal=1;startSize=26;fillColor=none;horizontalStack=0;resizeParent=1;resizeParentMax=0;resizeLast=0;collapsible=1;marginBottom=0;fontFamily=Times New Roman;fontSize=14;" parent="1" vertex="1">
          <mxGeometry x="395" y="39" width="165" height="52" as="geometry" />
        </mxCell>
        <mxCell id="3h8cozunEXpPDpx6HcZv-29" value="+ extract(docID): JSON" style="text;strokeColor=none;fillColor=none;align=left;verticalAlign=top;spacingLeft=4;spacingRight=4;overflow=hidden;rotatable=0;points=[[0,0.5],[1,0.5]];portConstraint=eastwest;fontFamily=Times New Roman;fontSize=14;" parent="3h8cozunEXpPDpx6HcZv-28" vertex="1">
          <mxGeometry y="26" width="165" height="26" as="geometry" />
        </mxCell>
        <mxCell id="3h8cozunEXpPDpx6HcZv-33" value="ElementExtractHandler" style="swimlane;fontStyle=1;childLayout=stackLayout;horizontal=1;startSize=26;fillColor=none;horizontalStack=0;resizeParent=1;resizeParentMax=0;resizeLast=0;collapsible=1;marginBottom=0;fontFamily=Times New Roman;fontSize=14;" parent="1" vertex="1">
          <mxGeometry x="395" y="529" width="400" height="90" as="geometry" />
        </mxCell>
        <mxCell id="3h8cozunEXpPDpx6HcZv-34" value="- elementDAO: ElementDAO" style="text;strokeColor=none;fillColor=none;align=left;verticalAlign=top;spacingLeft=4;spacingRight=4;overflow=hidden;rotatable=0;points=[[0,0.5],[1,0.5]];portConstraint=eastwest;fontFamily=Times New Roman;fontSize=14;" parent="3h8cozunEXpPDpx6HcZv-33" vertex="1">
          <mxGeometry y="26" width="400" height="26" as="geometry" />
        </mxCell>
        <mxCell id="3h8cozunEXpPDpx6HcZv-35" value="" style="line;strokeWidth=1;fillColor=none;align=left;verticalAlign=middle;spacingTop=-1;spacingLeft=3;spacingRight=3;rotatable=0;labelPosition=right;points=[];portConstraint=eastwest;strokeColor=inherit;fontFamily=Times New Roman;fontSize=14;" parent="3h8cozunEXpPDpx6HcZv-33" vertex="1">
          <mxGeometry y="52" width="400" height="8" as="geometry" />
        </mxCell>
        <mxCell id="3h8cozunEXpPDpx6HcZv-37" value="+ extractElement(sentenceList, ElementList): Map&lt;Element, String&gt;" style="text;strokeColor=none;fillColor=none;align=left;verticalAlign=top;spacingLeft=4;spacingRight=4;overflow=hidden;rotatable=0;points=[[0,0.5],[1,0.5]];portConstraint=eastwest;fontFamily=Times New Roman;fontSize=14;" parent="3h8cozunEXpPDpx6HcZv-33" vertex="1">
          <mxGeometry y="60" width="400" height="30" as="geometry" />
        </mxCell>
        <mxCell id="3h8cozunEXpPDpx6HcZv-40" value="" style="endArrow=open;endFill=1;endSize=12;html=1;rounded=0;fontFamily=Times New Roman;exitX=1.003;exitY=-0.038;exitDx=0;exitDy=0;exitPerimeter=0;entryX=0;entryY=0;entryDx=0;entryDy=0;entryPerimeter=0;fontSize=14;" parent="1" source="3h8cozunEXpPDpx6HcZv-16" target="3h8cozunEXpPDpx6HcZv-29" edge="1">
          <mxGeometry width="160" relative="1" as="geometry">
            <mxPoint x="290" y="148" as="sourcePoint" />
            <mxPoint x="392" y="70" as="targetPoint" />
          </mxGeometry>
        </mxCell>
        <mxCell id="3h8cozunEXpPDpx6HcZv-41" value="" style="endArrow=block;dashed=1;endFill=0;endSize=12;html=1;rounded=0;fontFamily=Times New Roman;exitX=0.5;exitY=0;exitDx=0;exitDy=0;entryX=0.458;entryY=1.077;entryDx=0;entryDy=0;entryPerimeter=0;fontSize=14;" parent="1" source="3h8cozunEXpPDpx6HcZv-20" target="3h8cozunEXpPDpx6HcZv-29" edge="1">
          <mxGeometry width="160" relative="1" as="geometry">
            <mxPoint x="470" y="330" as="sourcePoint" />
            <mxPoint x="530" y="90" as="targetPoint" />
          </mxGeometry>
        </mxCell>
        <mxCell id="3h8cozunEXpPDpx6HcZv-42" value="" style="endArrow=open;endFill=1;endSize=12;html=1;rounded=0;fontFamily=Times New Roman;exitX=0.25;exitY=0;exitDx=0;exitDy=0;entryX=0.438;entryY=1.038;entryDx=0;entryDy=0;entryPerimeter=0;dashed=1;fontSize=14;" parent="1" source="3h8cozunEXpPDpx6HcZv-8" target="3h8cozunEXpPDpx6HcZv-7" edge="1">
          <mxGeometry width="160" relative="1" as="geometry">
            <mxPoint x="290" y="330" as="sourcePoint" />
            <mxPoint x="450" y="330" as="targetPoint" />
          </mxGeometry>
        </mxCell>
        <mxCell id="3h8cozunEXpPDpx6HcZv-43" value="" style="endArrow=open;endFill=1;endSize=12;html=1;rounded=0;fontFamily=Times New Roman;entryX=0.998;entryY=0.246;entryDx=0;entryDy=0;entryPerimeter=0;dashed=1;exitX=0;exitY=0.5;exitDx=0;exitDy=0;fontSize=14;" parent="1" source="3h8cozunEXpPDpx6HcZv-49" target="3h8cozunEXpPDpx6HcZv-4" edge="1">
          <mxGeometry width="160" relative="1" as="geometry">
            <mxPoint x="292" y="342" as="sourcePoint" />
            <mxPoint x="151" y="433" as="targetPoint" />
          </mxGeometry>
        </mxCell>
        <mxCell id="3h8cozunEXpPDpx6HcZv-44" value="1" style="endArrow=open;html=1;endSize=12;startArrow=diamondThin;startSize=14;startFill=1;align=left;verticalAlign=bottom;rounded=0;fontFamily=Times New Roman;fontColor=none;noLabel=1;exitX=0.922;exitY=1.013;exitDx=0;exitDy=0;exitPerimeter=0;entryX=0.25;entryY=0;entryDx=0;entryDy=0;fontSize=14;" parent="1" source="3h8cozunEXpPDpx6HcZv-25" target="3h8cozunEXpPDpx6HcZv-33" edge="1">
          <mxGeometry x="-1" y="3" relative="1" as="geometry">
            <mxPoint x="442" y="398" as="sourcePoint" />
            <mxPoint x="510" y="500" as="targetPoint" />
          </mxGeometry>
        </mxCell>
        <mxCell id="3h8cozunEXpPDpx6HcZv-46" value="1" style="endArrow=open;html=1;endSize=12;startArrow=diamondThin;startSize=14;startFill=1;align=left;verticalAlign=bottom;rounded=0;fontFamily=Times New Roman;exitX=0.006;exitY=0.542;exitDx=0;exitDy=0;fontColor=none;noLabel=1;exitPerimeter=0;entryX=0.997;entryY=0.885;entryDx=0;entryDy=0;entryPerimeter=0;fontSize=14;" parent="1" source="3h8cozunEXpPDpx6HcZv-35" target="3h8cozunEXpPDpx6HcZv-10" edge="1">
          <mxGeometry x="-1" y="3" relative="1" as="geometry">
            <mxPoint x="417.1199999999999" y="580.3340000000001" as="sourcePoint" />
            <mxPoint x="320" y="560" as="targetPoint" />
          </mxGeometry>
        </mxCell>
        <mxCell id="3h8cozunEXpPDpx6HcZv-50" value="ProcessDocHandler" style="swimlane;fontStyle=1;childLayout=stackLayout;horizontal=1;startSize=26;fillColor=none;horizontalStack=0;resizeParent=1;resizeParentMax=0;resizeLast=0;collapsible=1;marginBottom=0;fontFamily=Times New Roman;fontSize=14;" parent="1" vertex="1">
          <mxGeometry x="580" y="380" width="247" height="130" as="geometry" />
        </mxCell>
        <mxCell id="3h8cozunEXpPDpx6HcZv-51" value="+ processDoc(docID)" style="text;strokeColor=none;fillColor=none;align=left;verticalAlign=top;spacingLeft=4;spacingRight=4;overflow=hidden;rotatable=0;points=[[0,0.5],[1,0.5]];portConstraint=eastwest;fontFamily=Times New Roman;fontSize=14;" parent="3h8cozunEXpPDpx6HcZv-50" vertex="1">
          <mxGeometry y="26" width="247" height="26" as="geometry" />
        </mxCell>
        <mxCell id="3h8cozunEXpPDpx6HcZv-52" value="+ processParagraphs(docID): List&lt;Text&gt;" style="text;strokeColor=none;fillColor=none;align=left;verticalAlign=top;spacingLeft=4;spacingRight=4;overflow=hidden;rotatable=0;points=[[0,0.5],[1,0.5]];portConstraint=eastwest;fontFamily=Times New Roman;fontSize=14;" parent="3h8cozunEXpPDpx6HcZv-50" vertex="1">
          <mxGeometry y="52" width="247" height="26" as="geometry" />
        </mxCell>
        <mxCell id="3h8cozunEXpPDpx6HcZv-82" value="+ processImages(docID)" style="text;strokeColor=none;fillColor=none;align=left;verticalAlign=top;spacingLeft=4;spacingRight=4;overflow=hidden;rotatable=0;points=[[0,0.5],[1,0.5]];portConstraint=eastwest;fontFamily=Times New Roman;fontSize=14;" parent="3h8cozunEXpPDpx6HcZv-50" vertex="1">
          <mxGeometry y="78" width="247" height="26" as="geometry" />
        </mxCell>
        <mxCell id="3h8cozunEXpPDpx6HcZv-83" value="+ processTables(docID)" style="text;strokeColor=none;fillColor=none;align=left;verticalAlign=top;spacingLeft=4;spacingRight=4;overflow=hidden;rotatable=0;points=[[0,0.5],[1,0.5]];portConstraint=eastwest;fontFamily=Times New Roman;fontSize=14;" parent="3h8cozunEXpPDpx6HcZv-50" vertex="1">
          <mxGeometry y="104" width="247" height="26" as="geometry" />
        </mxCell>
        <mxCell id="3h8cozunEXpPDpx6HcZv-56" value="ElementResultDAO" style="swimlane;fontStyle=1;childLayout=stackLayout;horizontal=1;startSize=26;fillColor=none;horizontalStack=0;resizeParent=1;resizeParentMax=0;resizeLast=0;collapsible=1;marginBottom=0;fontFamily=Times New Roman;fontSize=14;" parent="1" vertex="1">
          <mxGeometry x="590" y="39" width="240" height="78" as="geometry" />
        </mxCell>
        <mxCell id="3h8cozunEXpPDpx6HcZv-57" value="+ findById(id)" style="text;strokeColor=none;fillColor=none;align=left;verticalAlign=top;spacingLeft=4;spacingRight=4;overflow=hidden;rotatable=0;points=[[0,0.5],[1,0.5]];portConstraint=eastwest;fontFamily=Times New Roman;fontSize=14;" parent="3h8cozunEXpPDpx6HcZv-56" vertex="1">
          <mxGeometry y="26" width="240" height="26" as="geometry" />
        </mxCell>
        <mxCell id="3h8cozunEXpPDpx6HcZv-59" value="+ addItem(name,id,data...)" style="text;strokeColor=none;fillColor=none;align=left;verticalAlign=top;spacingLeft=4;spacingRight=4;overflow=hidden;rotatable=0;points=[[0,0.5],[1,0.5]];portConstraint=eastwest;fontFamily=Times New Roman;fontSize=14;" parent="3h8cozunEXpPDpx6HcZv-56" vertex="1">
          <mxGeometry y="52" width="240" height="26" as="geometry" />
        </mxCell>
        <mxCell id="3h8cozunEXpPDpx6HcZv-63" value="1" style="endArrow=open;html=1;endSize=12;startArrow=diamondThin;startSize=14;startFill=1;align=left;verticalAlign=bottom;rounded=0;fontFamily=Times New Roman;fontColor=none;noLabel=1;exitX=1;exitY=0.231;exitDx=0;exitDy=0;exitPerimeter=0;entryX=0;entryY=0.5;entryDx=0;entryDy=0;fontSize=14;" parent="1" source="3h8cozunEXpPDpx6HcZv-24" target="3h8cozunEXpPDpx6HcZv-51" edge="1">
          <mxGeometry x="-1" y="3" relative="1" as="geometry">
            <mxPoint x="452" y="408" as="sourcePoint" />
            <mxPoint x="600" y="370" as="targetPoint" />
          </mxGeometry>
        </mxCell>
        <mxCell id="3h8cozunEXpPDpx6HcZv-64" value="1" style="endArrow=open;html=1;endSize=12;startArrow=diamondThin;startSize=14;startFill=1;align=left;verticalAlign=bottom;rounded=0;fontFamily=Times New Roman;entryX=0;entryY=0.885;entryDx=0;entryDy=0;fontColor=none;noLabel=1;exitX=1;exitY=0;exitDx=0;exitDy=0;entryPerimeter=0;fontSize=14;" parent="1" source="3h8cozunEXpPDpx6HcZv-20" target="3h8cozunEXpPDpx6HcZv-59" edge="1">
          <mxGeometry x="-1" y="3" relative="1" as="geometry">
            <mxPoint x="462" y="418" as="sourcePoint" />
            <mxPoint x="650" y="492" as="targetPoint" />
          </mxGeometry>
        </mxCell>
        <mxCell id="3h8cozunEXpPDpx6HcZv-74" value="ReportInfoDAO" style="swimlane;fontStyle=1;childLayout=stackLayout;horizontal=1;startSize=26;fillColor=none;horizontalStack=0;resizeParent=1;resizeParentMax=0;resizeLast=0;collapsible=1;marginBottom=0;fontFamily=Times New Roman;fontSize=14;" parent="1" vertex="1">
          <mxGeometry x="587" y="150" width="240" height="78" as="geometry" />
        </mxCell>
        <mxCell id="3h8cozunEXpPDpx6HcZv-75" value="+ findById(id)" style="text;strokeColor=none;fillColor=none;align=left;verticalAlign=top;spacingLeft=4;spacingRight=4;overflow=hidden;rotatable=0;points=[[0,0.5],[1,0.5]];portConstraint=eastwest;fontFamily=Times New Roman;fontSize=14;" parent="3h8cozunEXpPDpx6HcZv-74" vertex="1">
          <mxGeometry y="26" width="240" height="26" as="geometry" />
        </mxCell>
        <mxCell id="3h8cozunEXpPDpx6HcZv-76" value="+ addItem(name,id,data...)" style="text;strokeColor=none;fillColor=none;align=left;verticalAlign=top;spacingLeft=4;spacingRight=4;overflow=hidden;rotatable=0;points=[[0,0.5],[1,0.5]];portConstraint=eastwest;fontFamily=Times New Roman;fontSize=14;" parent="3h8cozunEXpPDpx6HcZv-74" vertex="1">
          <mxGeometry y="52" width="240" height="26" as="geometry" />
        </mxCell>
        <mxCell id="3h8cozunEXpPDpx6HcZv-77" value="ObjDAO" style="swimlane;fontStyle=1;childLayout=stackLayout;horizontal=1;startSize=26;fillColor=none;horizontalStack=0;resizeParent=1;resizeParentMax=0;resizeLast=0;collapsible=1;marginBottom=0;fontFamily=Times New Roman;fontSize=14;" parent="1" vertex="1">
          <mxGeometry x="587" y="249" width="240" height="78" as="geometry" />
        </mxCell>
        <mxCell id="3h8cozunEXpPDpx6HcZv-78" value="+ findById(id)" style="text;strokeColor=none;fillColor=none;align=left;verticalAlign=top;spacingLeft=4;spacingRight=4;overflow=hidden;rotatable=0;points=[[0,0.5],[1,0.5]];portConstraint=eastwest;fontFamily=Times New Roman;fontSize=14;" parent="3h8cozunEXpPDpx6HcZv-77" vertex="1">
          <mxGeometry y="26" width="240" height="26" as="geometry" />
        </mxCell>
        <mxCell id="3h8cozunEXpPDpx6HcZv-79" value="+ addItem(name,id,data...)" style="text;strokeColor=none;fillColor=none;align=left;verticalAlign=top;spacingLeft=4;spacingRight=4;overflow=hidden;rotatable=0;points=[[0,0.5],[1,0.5]];portConstraint=eastwest;fontFamily=Times New Roman;fontSize=14;" parent="3h8cozunEXpPDpx6HcZv-77" vertex="1">
          <mxGeometry y="52" width="240" height="26" as="geometry" />
        </mxCell>
        <mxCell id="3h8cozunEXpPDpx6HcZv-80" value="1" style="endArrow=open;html=1;endSize=12;startArrow=diamondThin;startSize=14;startFill=1;align=left;verticalAlign=bottom;rounded=0;fontFamily=Times New Roman;entryX=0;entryY=0.91;entryDx=0;entryDy=0;fontColor=none;noLabel=1;entryPerimeter=0;fontSize=14;" parent="1" target="3h8cozunEXpPDpx6HcZv-75" edge="1">
          <mxGeometry x="-1" y="3" relative="1" as="geometry">
            <mxPoint x="530" y="230" as="sourcePoint" />
            <mxPoint x="595" y="145" as="targetPoint" />
          </mxGeometry>
        </mxCell>
        <mxCell id="3h8cozunEXpPDpx6HcZv-81" value="1" style="endArrow=open;html=1;endSize=12;startArrow=diamondThin;startSize=14;startFill=1;align=left;verticalAlign=bottom;rounded=0;fontFamily=Times New Roman;entryX=0;entryY=0.5;entryDx=0;entryDy=0;fontColor=none;noLabel=1;exitX=1;exitY=0.5;exitDx=0;exitDy=0;fontSize=14;" parent="1" source="3h8cozunEXpPDpx6HcZv-48" target="3h8cozunEXpPDpx6HcZv-78" edge="1">
          <mxGeometry x="-1" y="3" relative="1" as="geometry">
            <mxPoint x="550" y="200" as="sourcePoint" />
            <mxPoint x="605" y="155" as="targetPoint" />
          </mxGeometry>
        </mxCell>
      </root>
    </mxGraphModel>
  </diagram>
  <diagram id="5CFVdVZXhYR-WO3hcARV" name="评估对象管理">
    <mxGraphModel dx="844" dy="620" grid="1" gridSize="10" guides="1" tooltips="1" connect="1" arrows="1" fold="1" page="1" pageScale="1" pageWidth="827" pageHeight="1169" math="0" shadow="0">
      <root>
        <mxCell id="0" />
        <mxCell id="1" parent="0" />
        <mxCell id="P3OO99voDqj9D0K822C8-1" value="Object" style="swimlane;fontStyle=1;childLayout=stackLayout;horizontal=1;startSize=26;fillColor=none;horizontalStack=0;resizeParent=1;resizeParentMax=0;resizeLast=0;collapsible=1;marginBottom=0;fontFamily=Times New Roman;fontSize=14;" parent="1" vertex="1">
          <mxGeometry x="370" y="304" width="140" height="156" as="geometry" />
        </mxCell>
        <mxCell id="P3OO99voDqj9D0K822C8-2" value="- objID: long" style="text;strokeColor=none;fillColor=none;align=left;verticalAlign=top;spacingLeft=4;spacingRight=4;overflow=hidden;rotatable=0;points=[[0,0.5],[1,0.5]];portConstraint=eastwest;fontFamily=Times New Roman;fontSize=14;" parent="P3OO99voDqj9D0K822C8-1" vertex="1">
          <mxGeometry y="26" width="140" height="26" as="geometry" />
        </mxCell>
        <mxCell id="P3OO99voDqj9D0K822C8-3" value="- docID: long" style="text;strokeColor=none;fillColor=none;align=left;verticalAlign=top;spacingLeft=4;spacingRight=4;overflow=hidden;rotatable=0;points=[[0,0.5],[1,0.5]];portConstraint=eastwest;fontFamily=Times New Roman;fontSize=14;" parent="P3OO99voDqj9D0K822C8-1" vertex="1">
          <mxGeometry y="52" width="140" height="26" as="geometry" />
        </mxCell>
        <mxCell id="Ji4LMl2MVLf9aDoaVJil-32" value="- objInfoID: long" style="text;strokeColor=none;fillColor=none;align=left;verticalAlign=top;spacingLeft=4;spacingRight=4;overflow=hidden;rotatable=0;points=[[0,0.5],[1,0.5]];portConstraint=eastwest;fontFamily=Times New Roman;fontSize=14;" parent="P3OO99voDqj9D0K822C8-1" vertex="1">
          <mxGeometry y="78" width="140" height="26" as="geometry" />
        </mxCell>
        <object label="- objStatus: int" d="d" id="P3OO99voDqj9D0K822C8-5">
          <mxCell style="text;strokeColor=none;fillColor=none;align=left;verticalAlign=top;spacingLeft=4;spacingRight=4;overflow=hidden;rotatable=0;points=[[0,0.5],[1,0.5]];portConstraint=eastwest;fontFamily=Times New Roman;fontSize=14;" parent="P3OO99voDqj9D0K822C8-1" vertex="1">
            <mxGeometry y="104" width="140" height="26" as="geometry" />
          </mxCell>
        </object>
        <object label="- createTime: datetime" d="d" id="P3OO99voDqj9D0K822C8-6">
          <mxCell style="text;strokeColor=none;fillColor=none;align=left;verticalAlign=top;spacingLeft=4;spacingRight=4;overflow=hidden;rotatable=0;points=[[0,0.5],[1,0.5]];portConstraint=eastwest;fontFamily=Times New Roman;fontSize=14;" parent="P3OO99voDqj9D0K822C8-1" vertex="1">
            <mxGeometry y="130" width="140" height="26" as="geometry" />
          </mxCell>
        </object>
        <mxCell id="P3OO99voDqj9D0K822C8-8" value="ObjectDAO" style="swimlane;fontStyle=1;childLayout=stackLayout;horizontal=1;startSize=26;fillColor=none;horizontalStack=0;resizeParent=1;resizeParentMax=0;resizeLast=0;collapsible=1;marginBottom=0;fontFamily=Times New Roman;fontSize=14;" parent="1" vertex="1">
          <mxGeometry x="570" y="356" width="240" height="130" as="geometry" />
        </mxCell>
        <mxCell id="P3OO99voDqj9D0K822C8-9" value="+ findById(id)" style="text;strokeColor=none;fillColor=none;align=left;verticalAlign=top;spacingLeft=4;spacingRight=4;overflow=hidden;rotatable=0;points=[[0,0.5],[1,0.5]];portConstraint=eastwest;fontFamily=Times New Roman;fontSize=14;" parent="P3OO99voDqj9D0K822C8-8" vertex="1">
          <mxGeometry y="26" width="240" height="26" as="geometry" />
        </mxCell>
        <mxCell id="P3OO99voDqj9D0K822C8-10" value="+ findBykeyName(name): List&lt;Object&gt;" style="text;strokeColor=none;fillColor=none;align=left;verticalAlign=top;spacingLeft=4;spacingRight=4;overflow=hidden;rotatable=0;points=[[0,0.5],[1,0.5]];portConstraint=eastwest;fontFamily=Times New Roman;fontSize=14;" parent="P3OO99voDqj9D0K822C8-8" vertex="1">
          <mxGeometry y="52" width="240" height="26" as="geometry" />
        </mxCell>
        <mxCell id="P3OO99voDqj9D0K822C8-11" value="+ addItem(name,id,data...)" style="text;strokeColor=none;fillColor=none;align=left;verticalAlign=top;spacingLeft=4;spacingRight=4;overflow=hidden;rotatable=0;points=[[0,0.5],[1,0.5]];portConstraint=eastwest;fontFamily=Times New Roman;fontSize=14;" parent="P3OO99voDqj9D0K822C8-8" vertex="1">
          <mxGeometry y="78" width="240" height="26" as="geometry" />
        </mxCell>
        <mxCell id="P3OO99voDqj9D0K822C8-12" value="+ removeItem(name,id)" style="text;strokeColor=none;fillColor=none;align=left;verticalAlign=top;spacingLeft=4;spacingRight=4;overflow=hidden;rotatable=0;points=[[0,0.5],[1,0.5]];portConstraint=eastwest;fontFamily=Times New Roman;fontSize=14;" parent="P3OO99voDqj9D0K822C8-8" vertex="1">
          <mxGeometry y="104" width="240" height="26" as="geometry" />
        </mxCell>
        <mxCell id="P3OO99voDqj9D0K822C8-13" value="ObjectController" style="swimlane;fontStyle=1;align=center;verticalAlign=top;childLayout=stackLayout;horizontal=1;startSize=26;horizontalStack=0;resizeParent=1;resizeParentMax=0;resizeLast=0;collapsible=1;marginBottom=0;fontFamily=Times New Roman;fontSize=14;" parent="1" vertex="1">
          <mxGeometry x="90" y="40" width="210" height="216" as="geometry" />
        </mxCell>
        <mxCell id="P3OO99voDqj9D0K822C8-14" value="- objectService:ObejctService" style="text;strokeColor=none;fillColor=none;align=left;verticalAlign=top;spacingLeft=4;spacingRight=4;overflow=hidden;rotatable=0;points=[[0,0.5],[1,0.5]];portConstraint=eastwest;fontFamily=Times New Roman;fontSize=14;" parent="P3OO99voDqj9D0K822C8-13" vertex="1">
          <mxGeometry y="26" width="210" height="26" as="geometry" />
        </mxCell>
        <mxCell id="P3OO99voDqj9D0K822C8-15" value="" style="line;strokeWidth=1;fillColor=none;align=left;verticalAlign=middle;spacingTop=-1;spacingLeft=3;spacingRight=3;rotatable=0;labelPosition=right;points=[];portConstraint=eastwest;strokeColor=inherit;fontFamily=Times New Roman;fontSize=14;" parent="P3OO99voDqj9D0K822C8-13" vertex="1">
          <mxGeometry y="52" width="210" height="8" as="geometry" />
        </mxCell>
        <mxCell id="P3OO99voDqj9D0K822C8-16" value="+ addObject(params...): JSON" style="text;strokeColor=none;fillColor=none;align=left;verticalAlign=top;spacingLeft=4;spacingRight=4;overflow=hidden;rotatable=0;points=[[0,0.5],[1,0.5]];portConstraint=eastwest;fontFamily=Times New Roman;fontSize=14;" parent="P3OO99voDqj9D0K822C8-13" vertex="1">
          <mxGeometry y="60" width="210" height="26" as="geometry" />
        </mxCell>
        <mxCell id="P3OO99voDqj9D0K822C8-17" value="+ exportObject(params...): JSON" style="text;strokeColor=none;fillColor=none;align=left;verticalAlign=top;spacingLeft=4;spacingRight=4;overflow=hidden;rotatable=0;points=[[0,0.5],[1,0.5]];portConstraint=eastwest;fontFamily=Times New Roman;fontSize=14;" parent="P3OO99voDqj9D0K822C8-13" vertex="1">
          <mxGeometry y="86" width="210" height="26" as="geometry" />
        </mxCell>
        <mxCell id="P3OO99voDqj9D0K822C8-18" value="+ deleteObject(params): JSON" style="text;strokeColor=none;fillColor=none;align=left;verticalAlign=top;spacingLeft=4;spacingRight=4;overflow=hidden;rotatable=0;points=[[0,0.5],[1,0.5]];portConstraint=eastwest;fontFamily=Times New Roman;fontSize=14;" parent="P3OO99voDqj9D0K822C8-13" vertex="1">
          <mxGeometry y="112" width="210" height="26" as="geometry" />
        </mxCell>
        <mxCell id="P3OO99voDqj9D0K822C8-19" value="+ queryObject(params...): JSON" style="text;strokeColor=none;fillColor=none;align=left;verticalAlign=top;spacingLeft=4;spacingRight=4;overflow=hidden;rotatable=0;points=[[0,0.5],[1,0.5]];portConstraint=eastwest;fontFamily=Times New Roman;fontSize=14;" parent="P3OO99voDqj9D0K822C8-13" vertex="1">
          <mxGeometry y="138" width="210" height="26" as="geometry" />
        </mxCell>
        <mxCell id="Ji4LMl2MVLf9aDoaVJil-1" value="+ modifyObject(params...): JSON" style="text;strokeColor=none;fillColor=none;align=left;verticalAlign=top;spacingLeft=4;spacingRight=4;overflow=hidden;rotatable=0;points=[[0,0.5],[1,0.5]];portConstraint=eastwest;fontFamily=Times New Roman;fontSize=14;" parent="P3OO99voDqj9D0K822C8-13" vertex="1">
          <mxGeometry y="164" width="210" height="26" as="geometry" />
        </mxCell>
        <mxCell id="Ji4LMl2MVLf9aDoaVJil-3" value="+ getObjectList(): JSON" style="text;strokeColor=none;fillColor=none;align=left;verticalAlign=top;spacingLeft=4;spacingRight=4;overflow=hidden;rotatable=0;points=[[0,0.5],[1,0.5]];portConstraint=eastwest;fontFamily=Times New Roman;fontSize=14;" parent="P3OO99voDqj9D0K822C8-13" vertex="1">
          <mxGeometry y="190" width="210" height="26" as="geometry" />
        </mxCell>
        <mxCell id="P3OO99voDqj9D0K822C8-20" value="ObjectServiceImpl" style="swimlane;fontStyle=1;align=center;verticalAlign=top;childLayout=stackLayout;horizontal=1;startSize=26;horizontalStack=0;resizeParent=1;resizeParentMax=0;resizeLast=0;collapsible=1;marginBottom=0;fontFamily=Times New Roman;fontSize=14;" parent="1" vertex="1">
          <mxGeometry x="580" y="50" width="240" height="212" as="geometry" />
        </mxCell>
        <mxCell id="P3OO99voDqj9D0K822C8-22" value="-  objectDAO:ObjectDAO" style="text;strokeColor=none;fillColor=none;align=left;verticalAlign=top;spacingLeft=4;spacingRight=4;overflow=hidden;rotatable=0;points=[[0,0.5],[1,0.5]];portConstraint=eastwest;fontFamily=Times New Roman;fontSize=14;" parent="P3OO99voDqj9D0K822C8-20" vertex="1">
          <mxGeometry y="26" width="240" height="26" as="geometry" />
        </mxCell>
        <mxCell id="P3OO99voDqj9D0K822C8-23" value="" style="line;strokeWidth=1;fillColor=none;align=left;verticalAlign=middle;spacingTop=-1;spacingLeft=3;spacingRight=3;rotatable=0;labelPosition=right;points=[];portConstraint=eastwest;strokeColor=inherit;fontFamily=Times New Roman;fontSize=14;" parent="P3OO99voDqj9D0K822C8-20" vertex="1">
          <mxGeometry y="52" width="240" height="8" as="geometry" />
        </mxCell>
        <mxCell id="Ji4LMl2MVLf9aDoaVJil-17" value="+ addObject(data...): objID" style="text;strokeColor=none;fillColor=none;align=left;verticalAlign=top;spacingLeft=4;spacingRight=4;overflow=hidden;rotatable=0;points=[[0,0.5],[1,0.5]];portConstraint=eastwest;fontFamily=Times New Roman;fontSize=14;" parent="P3OO99voDqj9D0K822C8-20" vertex="1">
          <mxGeometry y="60" width="240" height="26" as="geometry" />
        </mxCell>
        <mxCell id="Ji4LMl2MVLf9aDoaVJil-22" value="+ deleteObject(objID): Boolean" style="text;strokeColor=none;fillColor=none;align=left;verticalAlign=top;spacingLeft=4;spacingRight=4;overflow=hidden;rotatable=0;points=[[0,0.5],[1,0.5]];portConstraint=eastwest;fontFamily=Times New Roman;fontSize=14;" parent="P3OO99voDqj9D0K822C8-20" vertex="1">
          <mxGeometry y="86" width="240" height="26" as="geometry" />
        </mxCell>
        <mxCell id="Ji4LMl2MVLf9aDoaVJil-18" value="+ exportObject(objIDList): FILE" style="text;strokeColor=none;fillColor=none;align=left;verticalAlign=top;spacingLeft=4;spacingRight=4;overflow=hidden;rotatable=0;points=[[0,0.5],[1,0.5]];portConstraint=eastwest;fontFamily=Times New Roman;fontSize=14;" parent="P3OO99voDqj9D0K822C8-20" vertex="1">
          <mxGeometry y="112" width="240" height="26" as="geometry" />
        </mxCell>
        <mxCell id="Ji4LMl2MVLf9aDoaVJil-20" value="+ modifyObject(objID): Boolean" style="text;strokeColor=none;fillColor=none;align=left;verticalAlign=top;spacingLeft=4;spacingRight=4;overflow=hidden;rotatable=0;points=[[0,0.5],[1,0.5]];portConstraint=eastwest;fontFamily=Times New Roman;fontSize=14;" parent="P3OO99voDqj9D0K822C8-20" vertex="1">
          <mxGeometry y="138" width="240" height="26" as="geometry" />
        </mxCell>
        <mxCell id="Ji4LMl2MVLf9aDoaVJil-19" value="+ queryObject(data...): List&lt;Object&gt;" style="text;strokeColor=none;fillColor=none;align=left;verticalAlign=top;spacingLeft=4;spacingRight=4;overflow=hidden;rotatable=0;points=[[0,0.5],[1,0.5]];portConstraint=eastwest;fontFamily=Times New Roman;fontSize=14;" parent="P3OO99voDqj9D0K822C8-20" vertex="1">
          <mxGeometry y="164" width="240" height="26" as="geometry" />
        </mxCell>
        <mxCell id="Ji4LMl2MVLf9aDoaVJil-21" value="+ getObjectList(): List&lt;Object&gt;" style="text;strokeColor=none;fillColor=none;align=left;verticalAlign=top;spacingLeft=4;spacingRight=4;overflow=hidden;rotatable=0;points=[[0,0.5],[1,0.5]];portConstraint=eastwest;fontFamily=Times New Roman;fontSize=14;" parent="P3OO99voDqj9D0K822C8-20" vertex="1">
          <mxGeometry y="190" width="240" height="22" as="geometry" />
        </mxCell>
        <mxCell id="P3OO99voDqj9D0K822C8-28" value="ObjectService" style="swimlane;fontStyle=1;childLayout=stackLayout;horizontal=1;startSize=26;fillColor=none;horizontalStack=0;resizeParent=1;resizeParentMax=0;resizeLast=0;collapsible=1;marginBottom=0;fontFamily=Times New Roman;fontSize=14;" parent="1" vertex="1">
          <mxGeometry x="380" y="50" width="130" height="178" as="geometry" />
        </mxCell>
        <mxCell id="P3OO99voDqj9D0K822C8-29" value="+ addObject()" style="text;strokeColor=none;fillColor=none;align=left;verticalAlign=top;spacingLeft=4;spacingRight=4;overflow=hidden;rotatable=0;points=[[0,0.5],[1,0.5]];portConstraint=eastwest;fontFamily=Times New Roman;fontSize=14;" parent="P3OO99voDqj9D0K822C8-28" vertex="1">
          <mxGeometry y="26" width="130" height="26" as="geometry" />
        </mxCell>
        <mxCell id="P3OO99voDqj9D0K822C8-30" value="+ exportObject()" style="text;strokeColor=none;fillColor=none;align=left;verticalAlign=top;spacingLeft=4;spacingRight=4;overflow=hidden;rotatable=0;points=[[0,0.5],[1,0.5]];portConstraint=eastwest;fontFamily=Times New Roman;fontSize=14;" parent="P3OO99voDqj9D0K822C8-28" vertex="1">
          <mxGeometry y="52" width="130" height="26" as="geometry" />
        </mxCell>
        <mxCell id="P3OO99voDqj9D0K822C8-31" value="+ deleteObject()" style="text;strokeColor=none;fillColor=none;align=left;verticalAlign=top;spacingLeft=4;spacingRight=4;overflow=hidden;rotatable=0;points=[[0,0.5],[1,0.5]];portConstraint=eastwest;fontFamily=Times New Roman;fontSize=14;" parent="P3OO99voDqj9D0K822C8-28" vertex="1">
          <mxGeometry y="78" width="130" height="26" as="geometry" />
        </mxCell>
        <mxCell id="P3OO99voDqj9D0K822C8-32" value="+ queryObject()" style="text;strokeColor=none;fillColor=none;align=left;verticalAlign=top;spacingLeft=4;spacingRight=4;overflow=hidden;rotatable=0;points=[[0,0.5],[1,0.5]];portConstraint=eastwest;fontFamily=Times New Roman;fontSize=14;" parent="P3OO99voDqj9D0K822C8-28" vertex="1">
          <mxGeometry y="104" width="130" height="26" as="geometry" />
        </mxCell>
        <mxCell id="Ji4LMl2MVLf9aDoaVJil-2" value="+ modifyObject()" style="text;strokeColor=none;fillColor=none;align=left;verticalAlign=top;spacingLeft=4;spacingRight=4;overflow=hidden;rotatable=0;points=[[0,0.5],[1,0.5]];portConstraint=eastwest;fontFamily=Times New Roman;fontSize=14;" parent="P3OO99voDqj9D0K822C8-28" vertex="1">
          <mxGeometry y="130" width="130" height="26" as="geometry" />
        </mxCell>
        <mxCell id="Ji4LMl2MVLf9aDoaVJil-4" value="+ getObjectList()" style="text;strokeColor=none;fillColor=none;align=left;verticalAlign=top;spacingLeft=4;spacingRight=4;overflow=hidden;rotatable=0;points=[[0,0.5],[1,0.5]];portConstraint=eastwest;fontFamily=Times New Roman;fontSize=14;" parent="P3OO99voDqj9D0K822C8-28" vertex="1">
          <mxGeometry y="156" width="130" height="22" as="geometry" />
        </mxCell>
        <mxCell id="P3OO99voDqj9D0K822C8-40" value="" style="endArrow=open;endFill=1;endSize=12;html=1;rounded=0;fontFamily=Times New Roman;entryX=0;entryY=0.5;entryDx=0;entryDy=0;exitX=1;exitY=0.5;exitDx=0;exitDy=0;fontSize=14;" parent="1" source="P3OO99voDqj9D0K822C8-18" target="P3OO99voDqj9D0K822C8-31" edge="1">
          <mxGeometry width="160" relative="1" as="geometry">
            <mxPoint x="290" y="148" as="sourcePoint" />
            <mxPoint x="630" y="330" as="targetPoint" />
          </mxGeometry>
        </mxCell>
        <mxCell id="P3OO99voDqj9D0K822C8-41" value="" style="endArrow=block;dashed=1;endFill=0;endSize=12;html=1;rounded=0;fontFamily=Times New Roman;exitX=0;exitY=0.5;exitDx=0;exitDy=0;entryX=1;entryY=0.5;entryDx=0;entryDy=0;fontSize=14;" parent="1" target="P3OO99voDqj9D0K822C8-32" edge="1">
          <mxGeometry width="160" relative="1" as="geometry">
            <mxPoint x="580" y="149" as="sourcePoint" />
            <mxPoint x="510" y="210" as="targetPoint" />
          </mxGeometry>
        </mxCell>
        <mxCell id="P3OO99voDqj9D0K822C8-42" value="" style="endArrow=open;endFill=1;endSize=12;html=1;rounded=0;fontFamily=Times New Roman;exitX=0;exitY=0.5;exitDx=0;exitDy=0;entryX=1;entryY=0.5;entryDx=0;entryDy=0;dashed=1;fontSize=14;" parent="1" source="P3OO99voDqj9D0K822C8-10" target="P3OO99voDqj9D0K822C8-5" edge="1">
          <mxGeometry width="160" relative="1" as="geometry">
            <mxPoint x="290" y="330" as="sourcePoint" />
            <mxPoint x="450" y="330" as="targetPoint" />
          </mxGeometry>
        </mxCell>
        <mxCell id="P3OO99voDqj9D0K822C8-45" value="1" style="endArrow=open;endSize=12;startArrow=diamondThin;startSize=14;startFill=1;align=left;verticalAlign=bottom;rounded=0;fontFamily=Times New Roman;entryX=0.5;entryY=0;entryDx=0;entryDy=0;html=1;fontColor=none;noLabel=1;exitX=0.465;exitY=0.97;exitDx=0;exitDy=0;exitPerimeter=0;fontSize=14;" parent="1" source="Ji4LMl2MVLf9aDoaVJil-21" target="P3OO99voDqj9D0K822C8-8" edge="1">
          <mxGeometry x="-1" y="3" relative="1" as="geometry">
            <mxPoint x="693.04" y="213.66200000000003" as="sourcePoint" />
            <mxPoint x="510" y="530" as="targetPoint" />
          </mxGeometry>
        </mxCell>
        <mxCell id="Ji4LMl2MVLf9aDoaVJil-5" style="edgeStyle=none;rounded=0;orthogonalLoop=1;jettySize=auto;html=1;exitX=0.75;exitY=0;exitDx=0;exitDy=0;fontFamily=Times New Roman;fontColor=none;endArrow=diamondThin;endFill=1;fontSize=14;" parent="1" source="P3OO99voDqj9D0K822C8-8" target="P3OO99voDqj9D0K822C8-8" edge="1">
          <mxGeometry relative="1" as="geometry" />
        </mxCell>
        <mxCell id="Ji4LMl2MVLf9aDoaVJil-6" value="ObjectInfo" style="swimlane;fontStyle=1;childLayout=stackLayout;horizontal=1;startSize=26;fillColor=none;horizontalStack=0;resizeParent=1;resizeParentMax=0;resizeLast=0;collapsible=1;marginBottom=0;fontFamily=Times New Roman;fontSize=14;" parent="1" vertex="1">
          <mxGeometry x="140" y="290" width="140" height="260" as="geometry" />
        </mxCell>
        <mxCell id="Ji4LMl2MVLf9aDoaVJil-7" value="- objInfoID: long" style="text;strokeColor=none;fillColor=none;align=left;verticalAlign=top;spacingLeft=4;spacingRight=4;overflow=hidden;rotatable=0;points=[[0,0.5],[1,0.5]];portConstraint=eastwest;fontFamily=Times New Roman;fontSize=14;" parent="Ji4LMl2MVLf9aDoaVJil-6" vertex="1">
          <mxGeometry y="26" width="140" height="26" as="geometry" />
        </mxCell>
        <mxCell id="Ji4LMl2MVLf9aDoaVJil-8" value="- objTitle: String" style="text;strokeColor=none;fillColor=none;align=left;verticalAlign=top;spacingLeft=4;spacingRight=4;overflow=hidden;rotatable=0;points=[[0,0.5],[1,0.5]];portConstraint=eastwest;fontFamily=Times New Roman;fontSize=14;" parent="Ji4LMl2MVLf9aDoaVJil-6" vertex="1">
          <mxGeometry y="52" width="140" height="26" as="geometry" />
        </mxCell>
        <object label="- total_value: double " d="d" id="Ji4LMl2MVLf9aDoaVJil-9">
          <mxCell style="text;strokeColor=none;fillColor=none;align=left;verticalAlign=top;spacingLeft=4;spacingRight=4;overflow=hidden;rotatable=0;points=[[0,0.5],[1,0.5]];portConstraint=eastwest;fontFamily=Times New Roman;fontSize=14;" parent="Ji4LMl2MVLf9aDoaVJil-6" vertex="1">
            <mxGeometry y="78" width="140" height="26" as="geometry" />
          </mxCell>
        </object>
        <object label="- value_type: String" d="d" id="Ji4LMl2MVLf9aDoaVJil-10">
          <mxCell style="text;strokeColor=none;fillColor=none;align=left;verticalAlign=top;spacingLeft=4;spacingRight=4;overflow=hidden;rotatable=0;points=[[0,0.5],[1,0.5]];portConstraint=eastwest;fontFamily=Times New Roman;fontSize=14;" parent="Ji4LMl2MVLf9aDoaVJil-6" vertex="1">
            <mxGeometry y="104" width="140" height="26" as="geometry" />
          </mxCell>
        </object>
        <object label="- value_time: date" d="d" id="Ji4LMl2MVLf9aDoaVJil-27">
          <mxCell style="text;strokeColor=none;fillColor=none;align=left;verticalAlign=top;spacingLeft=4;spacingRight=4;overflow=hidden;rotatable=0;points=[[0,0.5],[1,0.5]];portConstraint=eastwest;fontFamily=Times New Roman;fontSize=14;" parent="Ji4LMl2MVLf9aDoaVJil-6" vertex="1">
            <mxGeometry y="130" width="140" height="26" as="geometry" />
          </mxCell>
        </object>
        <object label="- obj_owner: string" d="d" id="Ji4LMl2MVLf9aDoaVJil-28">
          <mxCell style="text;strokeColor=none;fillColor=none;align=left;verticalAlign=top;spacingLeft=4;spacingRight=4;overflow=hidden;rotatable=0;points=[[0,0.5],[1,0.5]];portConstraint=eastwest;fontFamily=Times New Roman;fontSize=14;" parent="Ji4LMl2MVLf9aDoaVJil-6" vertex="1">
            <mxGeometry y="156" width="140" height="26" as="geometry" />
          </mxCell>
        </object>
        <object label="- obj_type: String" d="d" id="Ji4LMl2MVLf9aDoaVJil-29">
          <mxCell style="text;strokeColor=none;fillColor=none;align=left;verticalAlign=top;spacingLeft=4;spacingRight=4;overflow=hidden;rotatable=0;points=[[0,0.5],[1,0.5]];portConstraint=eastwest;fontFamily=Times New Roman;fontSize=14;" parent="Ji4LMl2MVLf9aDoaVJil-6" vertex="1">
            <mxGeometry y="182" width="140" height="26" as="geometry" />
          </mxCell>
        </object>
        <object label="- obj_address: String" d="d" id="Ji4LMl2MVLf9aDoaVJil-30">
          <mxCell style="text;strokeColor=none;fillColor=none;align=left;verticalAlign=top;spacingLeft=4;spacingRight=4;overflow=hidden;rotatable=0;points=[[0,0.5],[1,0.5]];portConstraint=eastwest;fontFamily=Times New Roman;fontSize=14;" parent="Ji4LMl2MVLf9aDoaVJil-6" vertex="1">
            <mxGeometry y="208" width="140" height="26" as="geometry" />
          </mxCell>
        </object>
        <object label="..." d="d" id="Ji4LMl2MVLf9aDoaVJil-31">
          <mxCell style="text;strokeColor=none;fillColor=none;align=left;verticalAlign=top;spacingLeft=4;spacingRight=4;overflow=hidden;rotatable=0;points=[[0,0.5],[1,0.5]];portConstraint=eastwest;fontFamily=Times New Roman;fontSize=14;" parent="Ji4LMl2MVLf9aDoaVJil-6" vertex="1">
            <mxGeometry y="234" width="140" height="26" as="geometry" />
          </mxCell>
        </object>
        <mxCell id="Ji4LMl2MVLf9aDoaVJil-25" value="" style="endArrow=open;endFill=1;endSize=12;html=1;rounded=0;fontFamily=Times New Roman;exitX=0;exitY=0.5;exitDx=0;exitDy=0;entryX=1;entryY=0.5;entryDx=0;entryDy=0;dashed=1;fontSize=14;" parent="1" edge="1">
          <mxGeometry width="160" relative="1" as="geometry">
            <mxPoint x="370" y="393" as="sourcePoint" />
            <mxPoint x="280" y="394.5" as="targetPoint" />
          </mxGeometry>
        </mxCell>
      </root>
    </mxGraphModel>
  </diagram>
  <diagram id="a8CaWyznQe9ZzZJ8lvAI" name="用户管理">
    <mxGraphModel dx="1671" dy="636" grid="1" gridSize="10" guides="1" tooltips="1" connect="1" arrows="1" fold="1" page="1" pageScale="1" pageWidth="827" pageHeight="1169" math="0" shadow="0">
      <root>
        <mxCell id="0" />
        <mxCell id="1" parent="0" />
        <mxCell id="-UFcJT_SsoEh9quQ14M--1" value="User" style="swimlane;fontStyle=1;childLayout=stackLayout;horizontal=1;startSize=26;fillColor=none;horizontalStack=0;resizeParent=1;resizeParentMax=0;resizeLast=0;collapsible=1;marginBottom=0;fontFamily=Times New Roman;fontSize=14;" parent="1" vertex="1">
          <mxGeometry x="70" y="300" width="140" height="182" as="geometry" />
        </mxCell>
        <mxCell id="-UFcJT_SsoEh9quQ14M--2" value="- userID: long" style="text;strokeColor=none;fillColor=none;align=left;verticalAlign=top;spacingLeft=4;spacingRight=4;overflow=hidden;rotatable=0;points=[[0,0.5],[1,0.5]];portConstraint=eastwest;fontFamily=Times New Roman;fontSize=14;" parent="-UFcJT_SsoEh9quQ14M--1" vertex="1">
          <mxGeometry y="26" width="140" height="26" as="geometry" />
        </mxCell>
        <mxCell id="-UFcJT_SsoEh9quQ14M--3" value="- userName: String" style="text;strokeColor=none;fillColor=none;align=left;verticalAlign=top;spacingLeft=4;spacingRight=4;overflow=hidden;rotatable=0;points=[[0,0.5],[1,0.5]];portConstraint=eastwest;fontFamily=Times New Roman;fontSize=14;" parent="-UFcJT_SsoEh9quQ14M--1" vertex="1">
          <mxGeometry y="52" width="140" height="26" as="geometry" />
        </mxCell>
        <object label="- userType: int&#xa;" d="d" id="-UFcJT_SsoEh9quQ14M--6">
          <mxCell style="text;strokeColor=none;fillColor=none;align=left;verticalAlign=top;spacingLeft=4;spacingRight=4;overflow=hidden;rotatable=0;points=[[0,0.5],[1,0.5]];portConstraint=eastwest;fontFamily=Times New Roman;fontSize=14;" parent="-UFcJT_SsoEh9quQ14M--1" vertex="1">
            <mxGeometry y="78" width="140" height="26" as="geometry" />
          </mxCell>
        </object>
        <object label="- userDepartment: String&#xa;" d="d" id="-UFcJT_SsoEh9quQ14M--5">
          <mxCell style="text;strokeColor=none;fillColor=none;align=left;verticalAlign=top;spacingLeft=4;spacingRight=4;overflow=hidden;rotatable=0;points=[[0,0.5],[1,0.5]];portConstraint=eastwest;fontFamily=Times New Roman;fontSize=14;" parent="-UFcJT_SsoEh9quQ14M--1" vertex="1">
            <mxGeometry y="104" width="140" height="26" as="geometry" />
          </mxCell>
        </object>
        <object label="- password: String&#xa;" d="d" id="-UFcJT_SsoEh9quQ14M--4">
          <mxCell style="text;strokeColor=none;fillColor=none;align=left;verticalAlign=top;spacingLeft=4;spacingRight=4;overflow=hidden;rotatable=0;points=[[0,0.5],[1,0.5]];portConstraint=eastwest;fontFamily=Times New Roman;fontSize=14;" parent="-UFcJT_SsoEh9quQ14M--1" vertex="1">
            <mxGeometry y="130" width="140" height="26" as="geometry" />
          </mxCell>
        </object>
        <object label="..." d="d" id="-UFcJT_SsoEh9quQ14M--7">
          <mxCell style="text;strokeColor=none;fillColor=none;align=left;verticalAlign=top;spacingLeft=4;spacingRight=4;overflow=hidden;rotatable=0;points=[[0,0.5],[1,0.5]];portConstraint=eastwest;fontFamily=Times New Roman;fontSize=14;" parent="-UFcJT_SsoEh9quQ14M--1" vertex="1">
            <mxGeometry y="156" width="140" height="26" as="geometry" />
          </mxCell>
        </object>
        <mxCell id="-UFcJT_SsoEh9quQ14M--8" value="UserDAO" style="swimlane;fontStyle=1;childLayout=stackLayout;horizontal=1;startSize=26;fillColor=none;horizontalStack=0;resizeParent=1;resizeParentMax=0;resizeLast=0;collapsible=1;marginBottom=0;fontFamily=Times New Roman;fontSize=14;" parent="1" vertex="1">
          <mxGeometry x="260" y="352" width="240" height="130" as="geometry" />
        </mxCell>
        <mxCell id="-UFcJT_SsoEh9quQ14M--9" value="+ findById(id)" style="text;strokeColor=none;fillColor=none;align=left;verticalAlign=top;spacingLeft=4;spacingRight=4;overflow=hidden;rotatable=0;points=[[0,0.5],[1,0.5]];portConstraint=eastwest;fontFamily=Times New Roman;fontSize=14;" parent="-UFcJT_SsoEh9quQ14M--8" vertex="1">
          <mxGeometry y="26" width="240" height="26" as="geometry" />
        </mxCell>
        <mxCell id="-UFcJT_SsoEh9quQ14M--10" value="+ findBykeyName(name): List&lt;User&gt;" style="text;strokeColor=none;fillColor=none;align=left;verticalAlign=top;spacingLeft=4;spacingRight=4;overflow=hidden;rotatable=0;points=[[0,0.5],[1,0.5]];portConstraint=eastwest;fontFamily=Times New Roman;fontSize=14;" parent="-UFcJT_SsoEh9quQ14M--8" vertex="1">
          <mxGeometry y="52" width="240" height="26" as="geometry" />
        </mxCell>
        <mxCell id="-UFcJT_SsoEh9quQ14M--11" value="+ addItem(name,id,data...)" style="text;strokeColor=none;fillColor=none;align=left;verticalAlign=top;spacingLeft=4;spacingRight=4;overflow=hidden;rotatable=0;points=[[0,0.5],[1,0.5]];portConstraint=eastwest;fontFamily=Times New Roman;fontSize=14;" parent="-UFcJT_SsoEh9quQ14M--8" vertex="1">
          <mxGeometry y="78" width="240" height="26" as="geometry" />
        </mxCell>
        <mxCell id="-UFcJT_SsoEh9quQ14M--12" value="+ removeItem(name,id)" style="text;strokeColor=none;fillColor=none;align=left;verticalAlign=top;spacingLeft=4;spacingRight=4;overflow=hidden;rotatable=0;points=[[0,0.5],[1,0.5]];portConstraint=eastwest;fontFamily=Times New Roman;fontSize=14;" parent="-UFcJT_SsoEh9quQ14M--8" vertex="1">
          <mxGeometry y="104" width="240" height="26" as="geometry" />
        </mxCell>
        <mxCell id="-UFcJT_SsoEh9quQ14M--13" value="UserController" style="swimlane;fontStyle=1;align=center;verticalAlign=top;childLayout=stackLayout;horizontal=1;startSize=26;horizontalStack=0;resizeParent=1;resizeParentMax=0;resizeLast=0;collapsible=1;marginBottom=0;fontFamily=Times New Roman;fontSize=14;" parent="1" vertex="1">
          <mxGeometry x="80" y="24" width="210" height="216" as="geometry" />
        </mxCell>
        <mxCell id="-UFcJT_SsoEh9quQ14M--14" value="- userService: UserService" style="text;strokeColor=none;fillColor=none;align=left;verticalAlign=top;spacingLeft=4;spacingRight=4;overflow=hidden;rotatable=0;points=[[0,0.5],[1,0.5]];portConstraint=eastwest;fontFamily=Times New Roman;fontSize=14;" parent="-UFcJT_SsoEh9quQ14M--13" vertex="1">
          <mxGeometry y="26" width="210" height="26" as="geometry" />
        </mxCell>
        <mxCell id="-UFcJT_SsoEh9quQ14M--15" value="" style="line;strokeWidth=1;fillColor=none;align=left;verticalAlign=middle;spacingTop=-1;spacingLeft=3;spacingRight=3;rotatable=0;labelPosition=right;points=[];portConstraint=eastwest;strokeColor=inherit;fontFamily=Times New Roman;fontSize=14;" parent="-UFcJT_SsoEh9quQ14M--13" vertex="1">
          <mxGeometry y="52" width="210" height="8" as="geometry" />
        </mxCell>
        <mxCell id="-UFcJT_SsoEh9quQ14M--16" value="+ addUser(params...): JSON" style="text;strokeColor=none;fillColor=none;align=left;verticalAlign=top;spacingLeft=4;spacingRight=4;overflow=hidden;rotatable=0;points=[[0,0.5],[1,0.5]];portConstraint=eastwest;fontFamily=Times New Roman;fontSize=14;" parent="-UFcJT_SsoEh9quQ14M--13" vertex="1">
          <mxGeometry y="60" width="210" height="26" as="geometry" />
        </mxCell>
        <mxCell id="-UFcJT_SsoEh9quQ14M--17" value="+ removeUser(params...): JSON" style="text;strokeColor=none;fillColor=none;align=left;verticalAlign=top;spacingLeft=4;spacingRight=4;overflow=hidden;rotatable=0;points=[[0,0.5],[1,0.5]];portConstraint=eastwest;fontFamily=Times New Roman;fontSize=14;" parent="-UFcJT_SsoEh9quQ14M--13" vertex="1">
          <mxGeometry y="86" width="210" height="26" as="geometry" />
        </mxCell>
        <mxCell id="-UFcJT_SsoEh9quQ14M--18" value="+ modifyUser(params): JSON" style="text;strokeColor=none;fillColor=none;align=left;verticalAlign=top;spacingLeft=4;spacingRight=4;overflow=hidden;rotatable=0;points=[[0,0.5],[1,0.5]];portConstraint=eastwest;fontFamily=Times New Roman;fontSize=14;" parent="-UFcJT_SsoEh9quQ14M--13" vertex="1">
          <mxGeometry y="112" width="210" height="26" as="geometry" />
        </mxCell>
        <mxCell id="-UFcJT_SsoEh9quQ14M--49" value="+ queryUser(params...): JSON" style="text;strokeColor=none;fillColor=none;align=left;verticalAlign=top;spacingLeft=4;spacingRight=4;overflow=hidden;rotatable=0;points=[[0,0.5],[1,0.5]];portConstraint=eastwest;fontFamily=Times New Roman;fontSize=14;" parent="-UFcJT_SsoEh9quQ14M--13" vertex="1">
          <mxGeometry y="138" width="210" height="26" as="geometry" />
        </mxCell>
        <mxCell id="-UFcJT_SsoEh9quQ14M--19" value="+ getUserList(params...): JSON" style="text;strokeColor=none;fillColor=none;align=left;verticalAlign=top;spacingLeft=4;spacingRight=4;overflow=hidden;rotatable=0;points=[[0,0.5],[1,0.5]];portConstraint=eastwest;fontFamily=Times New Roman;fontSize=14;" parent="-UFcJT_SsoEh9quQ14M--13" vertex="1">
          <mxGeometry y="164" width="210" height="26" as="geometry" />
        </mxCell>
        <mxCell id="-UFcJT_SsoEh9quQ14M--51" value="+ resetUser(params...): JSON" style="text;strokeColor=none;fillColor=none;align=left;verticalAlign=top;spacingLeft=4;spacingRight=4;overflow=hidden;rotatable=0;points=[[0,0.5],[1,0.5]];portConstraint=eastwest;fontFamily=Times New Roman;fontSize=14;" parent="-UFcJT_SsoEh9quQ14M--13" vertex="1">
          <mxGeometry y="190" width="210" height="26" as="geometry" />
        </mxCell>
        <mxCell id="-UFcJT_SsoEh9quQ14M--20" value="UserServiceImpl" style="swimlane;fontStyle=1;align=center;verticalAlign=top;childLayout=stackLayout;horizontal=1;startSize=26;horizontalStack=0;resizeParent=1;resizeParentMax=0;resizeLast=0;collapsible=1;marginBottom=0;fontFamily=Times New Roman;fontSize=14;" parent="1" vertex="1">
          <mxGeometry x="540" y="240" width="240" height="242" as="geometry" />
        </mxCell>
        <mxCell id="-UFcJT_SsoEh9quQ14M--22" value="-  userDAO: userDAO" style="text;strokeColor=none;fillColor=none;align=left;verticalAlign=top;spacingLeft=4;spacingRight=4;overflow=hidden;rotatable=0;points=[[0,0.5],[1,0.5]];portConstraint=eastwest;fontFamily=Times New Roman;fontSize=14;" parent="-UFcJT_SsoEh9quQ14M--20" vertex="1">
          <mxGeometry y="26" width="240" height="26" as="geometry" />
        </mxCell>
        <mxCell id="-UFcJT_SsoEh9quQ14M--23" value="" style="line;strokeWidth=1;fillColor=none;align=left;verticalAlign=middle;spacingTop=-1;spacingLeft=3;spacingRight=3;rotatable=0;labelPosition=right;points=[];portConstraint=eastwest;strokeColor=inherit;fontFamily=Times New Roman;fontSize=14;" parent="-UFcJT_SsoEh9quQ14M--20" vertex="1">
          <mxGeometry y="52" width="240" height="8" as="geometry" />
        </mxCell>
        <mxCell id="-UFcJT_SsoEh9quQ14M--72" value="+ addUser(user): userID" style="text;strokeColor=none;fillColor=none;align=left;verticalAlign=top;spacingLeft=4;spacingRight=4;overflow=hidden;rotatable=0;points=[[0,0.5],[1,0.5]];portConstraint=eastwest;fontFamily=Times New Roman;fontSize=14;" parent="-UFcJT_SsoEh9quQ14M--20" vertex="1">
          <mxGeometry y="60" width="240" height="26" as="geometry" />
        </mxCell>
        <mxCell id="-UFcJT_SsoEh9quQ14M--73" value="+ removeUser(userID): Boolean" style="text;strokeColor=none;fillColor=none;align=left;verticalAlign=top;spacingLeft=4;spacingRight=4;overflow=hidden;rotatable=0;points=[[0,0.5],[1,0.5]];portConstraint=eastwest;fontFamily=Times New Roman;fontSize=14;" parent="-UFcJT_SsoEh9quQ14M--20" vertex="1">
          <mxGeometry y="86" width="240" height="26" as="geometry" />
        </mxCell>
        <mxCell id="-UFcJT_SsoEh9quQ14M--74" value="+ modifyUser(userID): Boolean" style="text;strokeColor=none;fillColor=none;align=left;verticalAlign=top;spacingLeft=4;spacingRight=4;overflow=hidden;rotatable=0;points=[[0,0.5],[1,0.5]];portConstraint=eastwest;fontFamily=Times New Roman;fontSize=14;" parent="-UFcJT_SsoEh9quQ14M--20" vertex="1">
          <mxGeometry y="112" width="240" height="26" as="geometry" />
        </mxCell>
        <mxCell id="-UFcJT_SsoEh9quQ14M--77" value="+ getUserList(): List&lt;User&gt;" style="text;strokeColor=none;fillColor=none;align=left;verticalAlign=top;spacingLeft=4;spacingRight=4;overflow=hidden;rotatable=0;points=[[0,0.5],[1,0.5]];portConstraint=eastwest;fontFamily=Times New Roman;fontSize=14;" parent="-UFcJT_SsoEh9quQ14M--20" vertex="1">
          <mxGeometry y="138" width="240" height="26" as="geometry" />
        </mxCell>
        <mxCell id="-UFcJT_SsoEh9quQ14M--76" value="+ resetUser(userID): Boolean" style="text;strokeColor=none;fillColor=none;align=left;verticalAlign=top;spacingLeft=4;spacingRight=4;overflow=hidden;rotatable=0;points=[[0,0.5],[1,0.5]];portConstraint=eastwest;fontFamily=Times New Roman;fontSize=14;" parent="-UFcJT_SsoEh9quQ14M--20" vertex="1">
          <mxGeometry y="164" width="240" height="26" as="geometry" />
        </mxCell>
        <mxCell id="-UFcJT_SsoEh9quQ14M--75" value="+ queryUser(data...): List&lt;User&gt;" style="text;strokeColor=none;fillColor=none;align=left;verticalAlign=top;spacingLeft=4;spacingRight=4;overflow=hidden;rotatable=0;points=[[0,0.5],[1,0.5]];portConstraint=eastwest;fontFamily=Times New Roman;fontSize=14;" parent="-UFcJT_SsoEh9quQ14M--20" vertex="1">
          <mxGeometry y="190" width="240" height="26" as="geometry" />
        </mxCell>
        <mxCell id="-UFcJT_SsoEh9quQ14M--24" value="+ documentUpload(fileList):JSON" style="text;strokeColor=none;fillColor=none;align=left;verticalAlign=top;spacingLeft=4;spacingRight=4;overflow=hidden;rotatable=0;points=[[0,0.5],[1,0.5]];portConstraint=eastwest;fontFamily=Times New Roman;fontSize=14;" parent="-UFcJT_SsoEh9quQ14M--20" vertex="1">
          <mxGeometry y="216" width="240" height="26" as="geometry" />
        </mxCell>
        <mxCell id="-UFcJT_SsoEh9quQ14M--28" value="UserService" style="swimlane;fontStyle=1;childLayout=stackLayout;horizontal=1;startSize=26;fillColor=none;horizontalStack=0;resizeParent=1;resizeParentMax=0;resizeLast=0;collapsible=1;marginBottom=0;fontFamily=Times New Roman;fontSize=14;" parent="1" vertex="1">
          <mxGeometry x="450" y="10" width="220" height="182" as="geometry" />
        </mxCell>
        <mxCell id="-UFcJT_SsoEh9quQ14M--54" value="+ addUser()" style="text;strokeColor=none;fillColor=none;align=left;verticalAlign=top;spacingLeft=4;spacingRight=4;overflow=hidden;rotatable=0;points=[[0,0.5],[1,0.5]];portConstraint=eastwest;fontFamily=Times New Roman;fontSize=14;" parent="-UFcJT_SsoEh9quQ14M--28" vertex="1">
          <mxGeometry y="26" width="220" height="26" as="geometry" />
        </mxCell>
        <mxCell id="-UFcJT_SsoEh9quQ14M--55" value="+ removeUser()" style="text;strokeColor=none;fillColor=none;align=left;verticalAlign=top;spacingLeft=4;spacingRight=4;overflow=hidden;rotatable=0;points=[[0,0.5],[1,0.5]];portConstraint=eastwest;fontFamily=Times New Roman;fontSize=14;" parent="-UFcJT_SsoEh9quQ14M--28" vertex="1">
          <mxGeometry y="52" width="220" height="26" as="geometry" />
        </mxCell>
        <mxCell id="-UFcJT_SsoEh9quQ14M--56" value="+ modifyUser()" style="text;strokeColor=none;fillColor=none;align=left;verticalAlign=top;spacingLeft=4;spacingRight=4;overflow=hidden;rotatable=0;points=[[0,0.5],[1,0.5]];portConstraint=eastwest;fontFamily=Times New Roman;fontSize=14;" parent="-UFcJT_SsoEh9quQ14M--28" vertex="1">
          <mxGeometry y="78" width="220" height="26" as="geometry" />
        </mxCell>
        <mxCell id="-UFcJT_SsoEh9quQ14M--57" value="+ queryUser()" style="text;strokeColor=none;fillColor=none;align=left;verticalAlign=top;spacingLeft=4;spacingRight=4;overflow=hidden;rotatable=0;points=[[0,0.5],[1,0.5]];portConstraint=eastwest;fontFamily=Times New Roman;fontSize=14;" parent="-UFcJT_SsoEh9quQ14M--28" vertex="1">
          <mxGeometry y="104" width="220" height="26" as="geometry" />
        </mxCell>
        <mxCell id="-UFcJT_SsoEh9quQ14M--59" value="+ resetUser()" style="text;strokeColor=none;fillColor=none;align=left;verticalAlign=top;spacingLeft=4;spacingRight=4;overflow=hidden;rotatable=0;points=[[0,0.5],[1,0.5]];portConstraint=eastwest;fontFamily=Times New Roman;fontSize=14;" parent="-UFcJT_SsoEh9quQ14M--28" vertex="1">
          <mxGeometry y="130" width="220" height="26" as="geometry" />
        </mxCell>
        <mxCell id="-UFcJT_SsoEh9quQ14M--58" value="+ getUserList():" style="text;strokeColor=none;fillColor=none;align=left;verticalAlign=top;spacingLeft=4;spacingRight=4;overflow=hidden;rotatable=0;points=[[0,0.5],[1,0.5]];portConstraint=eastwest;fontFamily=Times New Roman;fontSize=14;" parent="-UFcJT_SsoEh9quQ14M--28" vertex="1">
          <mxGeometry y="156" width="220" height="26" as="geometry" />
        </mxCell>
        <mxCell id="-UFcJT_SsoEh9quQ14M--40" value="" style="endArrow=open;endFill=1;endSize=12;html=1;rounded=0;fontFamily=Times New Roman;entryX=0;entryY=0.5;entryDx=0;entryDy=0;fontSize=14;" parent="1" target="-UFcJT_SsoEh9quQ14M--57" edge="1">
          <mxGeometry width="160" relative="1" as="geometry">
            <mxPoint x="290" y="148" as="sourcePoint" />
            <mxPoint x="340" y="148" as="targetPoint" />
          </mxGeometry>
        </mxCell>
        <mxCell id="-UFcJT_SsoEh9quQ14M--41" value="" style="endArrow=block;dashed=1;endFill=0;endSize=12;html=1;rounded=0;fontFamily=Times New Roman;exitX=0.5;exitY=0;exitDx=0;exitDy=0;entryX=0.844;entryY=0.962;entryDx=0;entryDy=0;entryPerimeter=0;fontSize=14;" parent="1" source="-UFcJT_SsoEh9quQ14M--20" target="-UFcJT_SsoEh9quQ14M--58" edge="1">
          <mxGeometry width="160" relative="1" as="geometry">
            <mxPoint x="470" y="330" as="sourcePoint" />
            <mxPoint x="450" y="220" as="targetPoint" />
          </mxGeometry>
        </mxCell>
        <mxCell id="-UFcJT_SsoEh9quQ14M--42" value="" style="endArrow=open;endFill=1;endSize=12;html=1;rounded=0;fontFamily=Times New Roman;exitX=0;exitY=0.5;exitDx=0;exitDy=0;entryX=1.002;entryY=-0.167;entryDx=0;entryDy=0;entryPerimeter=0;dashed=1;fontSize=14;" parent="1" source="-UFcJT_SsoEh9quQ14M--10" target="-UFcJT_SsoEh9quQ14M--5" edge="1">
          <mxGeometry width="160" relative="1" as="geometry">
            <mxPoint x="300" y="408" as="sourcePoint" />
            <mxPoint x="460" y="408" as="targetPoint" />
          </mxGeometry>
        </mxCell>
        <mxCell id="-UFcJT_SsoEh9quQ14M--43" value="" style="endArrow=open;endFill=1;endSize=12;html=1;rounded=0;fontFamily=Times New Roman;entryX=1.002;entryY=0.071;entryDx=0;entryDy=0;entryPerimeter=0;dashed=1;fontSize=14;" parent="1" source="-UFcJT_SsoEh9quQ14M--22" target="-UFcJT_SsoEh9quQ14M--1" edge="1">
          <mxGeometry width="160" relative="1" as="geometry">
            <mxPoint x="320" y="330" as="sourcePoint" />
            <mxPoint x="161" y="511" as="targetPoint" />
          </mxGeometry>
        </mxCell>
        <mxCell id="-UFcJT_SsoEh9quQ14M--45" value="1" style="endArrow=open;endSize=12;startArrow=diamondThin;startSize=14;startFill=1;align=left;verticalAlign=bottom;rounded=0;fontFamily=Times New Roman;entryX=1;entryY=0.5;entryDx=0;entryDy=0;html=1;fontColor=none;noLabel=1;exitX=0.001;exitY=0.962;exitDx=0;exitDy=0;exitPerimeter=0;fontSize=14;" parent="1" source="-UFcJT_SsoEh9quQ14M--74" target="-UFcJT_SsoEh9quQ14M--10" edge="1">
          <mxGeometry x="-1" y="3" relative="1" as="geometry">
            <mxPoint x="328" y="476" as="sourcePoint" />
            <mxPoint x="520" y="608" as="targetPoint" />
          </mxGeometry>
        </mxCell>
      </root>
    </mxGraphModel>
  </diagram>
</mxfile>
